<?xml version="1.0" standalone="no"?>
<!DOCTYPE svg PUBLIC "-//W3C//DTD SVG 1.1//EN" "http://www.w3.org/Graphics/SVG/1.1/DTD/svg11.dtd" >
<svg xmlns="http://www.w3.org/2000/svg" xmlns:xlink="http://www.w3.org/1999/xlink" version="1.1">
<metadata>
Created by FontForge 20161013 at Thu Oct  8 17:03:02 2015
 By ,,,
</metadata>
<defs>
<font id="Simple-Line-Icons-Pro" horiz-adv-x="1024" >
  <font-face 
    font-family="Simple-Line-Icons-Pro"
    font-weight="400"
    font-stretch="normal"
    units-per-em="1024"
    panose-1="0 0 0 0 0 0 0 0 0 0"
    ascent="960"
    descent="-64"
    bbox="-1.53846 -69 2470 961.925"
    underline-thickness="0"
    underline-position="0"
    unicode-range="U+0001-FFFD"
  />
<missing-glyph 
 />
    <glyph glyph-name=".notdef" unicode="&#xfffd;" 
 />
    <glyph glyph-name="glyph1" horiz-adv-x="0" 
d="M0 0v0v0v0z" />
    <glyph glyph-name="glyph1" horiz-adv-x="0" 
d="M0 0v0v0v0z" />
    <glyph glyph-name="nonmarkingreturn" horiz-adv-x="341" 
 />
    <glyph glyph-name="uni0001" horiz-adv-x="0" 
d="M0 0v0v0v0z" />
    <glyph glyph-name="space" unicode=" " horiz-adv-x="512" 
d="M0 0v0v0v0z" />
    <glyph glyph-name="uniE800" unicode="&#xe800;" 
d="M512 -64q-106 0 -199 40.5t-162.5 110t-110 162.5t-40.5 199t40.5 199t110 162.5t162.5 110t199 40.5t199 -40.5t162.5 -110t110 -162.5t40.5 -199t-40.5 -199t-110 -162.5t-162.5 -110t-199 -40.5v0zM512 917q-97 0 -182.5 -37t-149 -100.5t-100.5 -149t-37 -182.5
t37 -182.5t100.5 -149t149 -100.5t182.5 -37t182.5 37t149 100.5t100.5 149t37 182.5t-37 182.5t-100.5 149t-149 100.5t-182.5 37v0zM527 326q-3 -3 -7 -4.5t-8 -1.5t-8 1.5t-7 4.5l-213 214q-7 6 -7 15t7 15q6 6 14.5 6t15.5 -6l198 -199l198 199q6 6 15 6t15 -6
q7 -6 7 -15t-7 -15l-213 -214v0z" />
    <glyph glyph-name="uniE801" unicode="&#xe801;" 
d="M512 -64q-106 0 -199 40.5t-162.5 110t-110 162.5t-40.5 199t40.5 199t110 162.5t162.5 110t199 40.5t199 -40.5t162.5 -110t110 -162.5t40.5 -199t-40.5 -199t-110 -162.5t-162.5 -110t-199 -40.5v0zM512 917q-97 0 -182.5 -37t-149 -100.5t-100.5 -149t-37 -182.5
t37 -182.5t100.5 -149t149 -100.5t182.5 -37t182.5 37t149 100.5t100.5 149t37 182.5t-37 182.5t-100.5 149t-149 100.5t-182.5 37v0zM612 220q-3 -4 -7 -5.5t-8 -1.5t-8 1.5t-7 5.5l-213 213q-6 6 -6 15t6 15l213 213q7 7 15.5 7t14.5 -7q7 -6 7 -14.5t-7 -15.5l-198 -198
l198 -198q7 -6 7 -15t-7 -15v0z" />
    <glyph glyph-name="uniE802" unicode="&#xe802;" 
d="M512 -64q-106 0 -199 40.5t-162.5 110t-110 162.5t-40.5 199t40.5 199t110 162.5t162.5 110t199 40.5t199 -40.5t162.5 -110t110 -162.5t40.5 -199t-40.5 -199t-110 -162.5t-162.5 -110t-199 -40.5v0zM512 917q-97 0 -182.5 -37t-149 -100.5t-100.5 -149t-37 -182.5
t37 -182.5t100.5 -149t149 -100.5t182.5 -37t182.5 37t149 100.5t100.5 149t37 182.5t-37 182.5t-100.5 149t-149 100.5t-182.5 37v0zM442 220q-3 -4 -7 -5.5t-8 -1.5t-8 1.5t-7 5.5q-7 6 -7 15t7 15l198 198l-198 198q-7 7 -7 15.5t7 14.5q6 7 14.5 7t15.5 -7l213 -213
q6 -6 6 -15t-6 -15l-213 -213v0z" />
    <glyph glyph-name="uniE803" unicode="&#xe803;" 
d="M512 -64q-106 0 -199 40.5t-162.5 110t-110 162.5t-40.5 199t40.5 199t110 162.5t162.5 110t199 40.5t199 -40.5t162.5 -110t110 -162.5t40.5 -199t-40.5 -199t-110 -162.5t-162.5 -110t-199 -40.5v0zM512 917q-97 0 -182.5 -37t-149 -100.5t-100.5 -149t-37 -182.5
t37 -182.5t100.5 -149t149 -100.5t182.5 -37t182.5 37t149 100.5t100.5 149t37 182.5t-37 182.5t-100.5 149t-149 100.5t-182.5 37v0zM725 320q-4 0 -8 1.5t-7 4.5l-198 199l-198 -199q-7 -6 -15.5 -6t-14.5 6q-7 7 -7 15.5t7 14.5l213 214q6 6 15 6t15 -6l213 -214
q7 -6 7 -14.5t-7 -15.5q-3 -3 -7 -4.5t-8 -1.5v0z" />
    <glyph glyph-name="uniE804" unicode="&#xe804;" 
d="M509 173q-4 0 -8 1.5t-7 4.5l-489 510q-6 7 -6 15.5t7 14.5q6 6 15 6t15 -6l473 -494l473 494q7 6 15.5 6t15.5 -6q6 -6 6 -14.5t-6 -15.5l-488 -510q-4 -3 -8 -4.5t-8 -1.5v0z" />
    <glyph glyph-name="uniE805" unicode="&#xe805;" 
d="M766 -61q-4 0 -8 1.5t-7 4.5l-510 489q-3 3 -5 7t-2 9q0 4 2 8t5 7l510 490q6 6 15 5.5t15 -6.5t6 -15t-6 -15l-495 -474l495 -475q6 -6 6 -14.5t-6 -15.5q-3 -3 -7 -4.5t-8 -1.5v0z" />
    <glyph glyph-name="uniE806" unicode="&#xe806;" 
d="M256 -62q-4 0 -8 1.5t-7 5.5q-6 6 -6 15t6 15l494 474l-494 474q-6 6 -6 15t6 15q6 7 14.5 7t15.5 -6l510 -490q3 -3 4.5 -7t1.5 -8t-1.5 -8t-4.5 -7l-510 -490q-3 -3 -7 -4.5t-8 -1.5v0z" />
    <glyph glyph-name="uniE807" unicode="&#xe807;" 
d="M1003 -64h-982q-8 0 -14.5 6.5t-6.5 14.5v982q0 8 6.5 14.5t14.5 6.5h982q8 0 14.5 -6.5t6.5 -14.5v-982q0 -8 -6.5 -14.5t-14.5 -6.5v0zM981 917h-938v-938h938v938v0zM314 570l198 -199l198 199q6 6 15 6t15 -6q7 -6 7 -15t-7 -15l-213 -214q-3 -3 -7 -4.5t-8 -1.5
t-8 1.5t-7 4.5l-213 214q-7 6 -7 15t7 15q6 6 14.5 6t15.5 -6v0z" />
    <glyph glyph-name="uniE808" unicode="&#xe808;" 
d="M1003 -64h-982q-8 0 -14.5 6.5t-6.5 14.5v982q0 8 6.5 14.5t14.5 6.5h982q8 0 14.5 -6.5t6.5 -14.5v-982q0 -8 -6.5 -14.5t-14.5 -6.5v0zM981 917h-938v-938h938v938v0zM604 676q6 7 14.5 7t15.5 -7q6 -6 6 -15t-6 -15l-199 -198l199 -198q6 -7 6 -15.5t-6 -14.5
q-3 -4 -7 -5.5t-8 -1.5t-8 1.5t-7 5.5l-214 213q-6 6 -6 15t6 15l214 213v0z" />
    <glyph glyph-name="uniE809" unicode="&#xe809;" 
d="M1003 -64h-982q-8 0 -14.5 6.5t-6.5 14.5v982q0 8 6.5 14.5t14.5 6.5h982q8 0 14.5 -6.5t6.5 -14.5v-982q0 -8 -6.5 -14.5t-14.5 -6.5v0zM981 917h-938v-938h938v938v0zM390 676q7 7 15.5 7t14.5 -7l214 -213q6 -6 6 -15t-6 -15l-214 -213q-3 -4 -7 -5.5t-8 -1.5t-8 1.5
t-7 5.5q-6 6 -6 14.5t6 15.5l199 198l-199 198q-6 6 -6 15t6 15v0z" />
    <glyph glyph-name="uniE80A" unicode="&#xe80a;" 
d="M1003 -64h-982q-9 0 -15 6.5t-6 14.5v982q0 8 6 14.5t15 6.5h982q9 0 15 -6.5t6 -14.5v-982q0 -8 -6 -14.5t-15 -6.5v0zM981 917h-938v-938h938v938v0zM497 570q6 6 15 6t15 -6l213 -214q7 -6 7 -14.5t-7 -15.5q-3 -3 -7 -4.5t-8 -1.5t-8 1.5t-7 4.5l-198 199l-198 -199
q-7 -6 -15.5 -6t-14.5 6q-7 7 -7 15.5t7 14.5l213 214v0z" />
    <glyph glyph-name="uniE80B" unicode="&#xe80b;" 
d="M999 175q-5 0 -9 1.5t-7 4.5l-473 493l-473 -493q-6 -6 -15 -6t-15 6q-7 6 -7 14.5t6 15.5l489 508q6 7 15 7t15 -7l489 -508q6 -7 6 -15.5t-7 -14.5q-3 -3 -6.5 -4.5t-7.5 -1.5v0z" />
    <glyph glyph-name="uniE80C" unicode="&#xe80c;" 
d="M512 -64q-106 0 -199 40.5t-162.5 110t-110 162.5t-40.5 199t40.5 199t110 162.5t162.5 110t199 40.5t199 -40.5t162.5 -110t110 -162.5t40.5 -199t-40.5 -199t-110 -162.5t-162.5 -110t-199 -40.5v0zM512 917q-97 0 -182.5 -37t-149 -100.5t-100.5 -149t-37 -182.5
t37 -182.5t100.5 -149t149 -100.5t182.5 -37t182.5 37t149 100.5t100.5 149t37 182.5t-37 182.5t-100.5 149t-149 100.5t-182.5 37v0zM527 198q-1 -1 -3 -2.5t-4 -1.5q-2 -1 -4 -1.5t-4 -0.5t-4 0.5t-4 1.5q-2 0 -4 1.5t-3 2.5l-128 128q-6 7 -6 15.5t6 14.5q6 7 15 7t15 -7
l92 -91v418q0 9 6 15t15 6t15 -6t6 -15v-418l92 91q6 7 15 7t15 -7q6 -6 6 -14.5t-6 -15.5l-128 -128v0z" />
    <glyph glyph-name="uniE80D" unicode="&#xe80d;" 
d="M512 -64q-106 0 -199 40.5t-162.5 110t-110 162.5t-40.5 199t40.5 199t110 162.5t162.5 110t199 40.5t199 -40.5t162.5 -110t110 -162.5t40.5 -199t-40.5 -199t-110 -162.5t-162.5 -110t-199 -40.5v0zM512 917q-97 0 -182.5 -37t-149 -100.5t-100.5 -149t-37 -182.5
t37 -182.5t100.5 -149t149 -100.5t182.5 -37t182.5 37t149 100.5t100.5 149t37 182.5t-37 182.5t-100.5 149t-149 100.5t-182.5 37v0zM747 427h-418l91 -92q7 -6 7 -15t-7 -15q-3 -3 -7 -4.5t-8 -1.5t-8 1.5t-7 4.5l-128 128q-1 1 -2.5 3t-1.5 4q-1 2 -1.5 4t-0.5 4v0v0v0v0
q0 2 0.5 4t1.5 4q0 2 1.5 4t2.5 3v0v0l128 128q7 6 15.5 6t14.5 -6q7 -6 7 -15t-7 -15l-91 -92h418q8 0 14.5 -6t6.5 -15t-6.5 -15t-14.5 -6v0z" />
    <glyph glyph-name="uniE80E" unicode="&#xe80e;" 
d="M512 -64q-106 0 -199 40.5t-162.5 110t-110 162.5t-40.5 199t40.5 199t110 162.5t162.5 110t199 40.5t199 -40.5t162.5 -110t110 -162.5t40.5 -199t-40.5 -199t-110 -162.5t-162.5 -110t-199 -40.5v0zM512 917q-97 0 -182.5 -37t-149 -100.5t-100.5 -149t-37 -182.5
t37 -182.5t100.5 -149t149 -100.5t182.5 -37t182.5 37t149 100.5t100.5 149t37 182.5t-37 182.5t-100.5 149t-149 100.5t-182.5 37v0zM768 448v0v0v0v0q0 -2 -0.5 -4t-1.5 -4q0 -2 -1.5 -4t-2.5 -3l-128 -128q-3 -3 -7 -4.5t-8 -1.5t-8 1.5t-7 4.5q-7 6 -7 15t7 15l91 92
h-418q-8 0 -14.5 6t-6.5 15t6.5 15t14.5 6h418l-91 92q-7 6 -7 15t7 15q6 6 14.5 6t15.5 -6l128 -128v0v0q1 -2 2.5 -3.5t1.5 -3.5q1 -2 1.5 -4t0.5 -4v0z" />
    <glyph glyph-name="uniE80F" unicode="&#xe80f;" 
d="M512 -64q-106 0 -199 40.5t-162.5 110t-110 162.5t-40.5 199t40.5 199t110 162.5t162.5 110t199 40.5t199 -40.5t162.5 -110t110 -162.5t40.5 -199t-40.5 -199t-110 -162.5t-162.5 -110t-199 -40.5v0zM512 917q-97 0 -182.5 -37t-149 -100.5t-100.5 -149t-37 -182.5
t37 -182.5t100.5 -149t149 -100.5t182.5 -37t182.5 37t149 100.5t100.5 149t37 182.5t-37 182.5t-100.5 149t-149 100.5t-182.5 37v0zM640 533q-4 0 -8 1.5t-7 5.5l-92 91v-418q0 -8 -6 -14.5t-15 -6.5t-15 6.5t-6 14.5v418l-92 -91q-6 -7 -15 -7t-15 7q-6 6 -6 15t6 15
l128 128q1 1 3 2.5t4 1.5q4 2 8 2t8 -2q2 0 4 -1.5t3 -2.5l128 -128q6 -6 6 -15t-6 -15q-3 -4 -7 -5.5t-8 -1.5v0z" />
    <glyph glyph-name="uniE810" unicode="&#xe810;" 
d="M801 241l-275 -298v0v0q-2 -2 -3 -2.5l-3 -1.5l-0.5 -0.5l-0.5 -0.5q-2 -1 -4 -1.5t-5 -0.5q-2 0 -4 0.5t-4 1.5l-4 2t-3 3l-275 298q-6 7 -6 16t7 15q6 6 15 5.5t15 -6.5l239 -260v928q0 9 6 15t14 6q9 0 15.5 -6t6.5 -15v-927l238 259q6 6 15 6.5t15 -5.5q7 -6 7 -15
t-6 -16v0z" />
    <glyph glyph-name="uniE811" unicode="&#xe811;" 
d="M1003 428h-927l259 -240q6 -6 6.5 -15t-5.5 -15q-4 -3 -8 -5t-8 -2t-7.5 1.5t-7.5 4.5l-298 276v0v1q-2 1 -2.5 2l-1.5 3l-0.5 0.5l-0.5 0.5q-1 2 -1.5 4.5t-0.5 4.5t0.5 4t1.5 4q0 1 0.5 1t0.5 1q1 1 1.5 2.5t2.5 2.5v0v0l298 277q7 6 16 5.5t15 -6.5q6 -7 5.5 -15.5
t-6.5 -14.5l-259 -240h927q8 0 14.5 -6t6.5 -15t-6.5 -15t-14.5 -6v0z" />
    <glyph glyph-name="uniE812" unicode="&#xe812;" 
d="M1021 459q0 -1 0.5 -1t0.5 -1q1 -2 1.5 -4t0.5 -4t-0.5 -4.5t-1.5 -4.5v-0.5t-1 -0.5q0 -1 -1 -2.5t-3 -2.5v-1v0l-298 -276q-4 -3 -7.5 -4.5t-7.5 -1.5t-8 2t-8 5q-6 6 -5.5 15t6.5 15l259 240h-927q-9 0 -15 6t-6 15t6 15t15 6h927l-259 240q-6 6 -6.5 14.5t5.5 15.5
q6 6 15 6.5t16 -5.5l298 -277v0v0q2 -1 2.5 -2.5t1.5 -2.5v0z" />
    <glyph glyph-name="uniE813" unicode="&#xe813;" 
d="M1003 -64h-982q-9 0 -15 6.5t-6 14.5v982q0 8 6 14.5t15 6.5h982q9 0 15 -6.5t6 -14.5v-982q0 -8 -6 -14.5t-15 -6.5v0zM981 917h-938v-938h938v938v0zM399 314l92 -92v503q0 9 6 15.5t15 6.5t15 -6.5t6 -15.5v-503l92 92q6 6 15 6t15 -6t6 -15t-6 -15l-128 -128
q-1 -2 -3 -3l-4 -2t-4 -1.5t-4 -0.5t-4 0.5t-4 1.5l-4 2t-3 3l-128 128q-6 6 -6 15t6 15t15 6t15 -6v0z" />
    <glyph glyph-name="uniE814" unicode="&#xe814;" 
d="M1003 -64h-982q-8 0 -14.5 6.5t-6.5 14.5v982q0 8 6.5 14.5t14.5 6.5h982q8 0 14.5 -6.5t6.5 -14.5v-982q0 -8 -6.5 -14.5t-14.5 -6.5v0zM981 917h-938v-938h938v938v0zM215 456q1 2 2 3.5t2 3.5h0.5h0.5l128 128q6 6 14.5 6t15.5 -6q6 -6 6 -15t-6 -15l-92 -92h503
q9 0 15.5 -6t6.5 -15t-6.5 -15t-15.5 -6h-503l92 -92q6 -6 6 -15t-6 -15q-3 -3 -7 -4.5t-8 -1.5t-8 1.5t-7 4.5l-128 128q-2 1 -3 3l-2 4t-1.5 4t-0.5 4v0v0v0v0q0 2 0.5 4t1.5 4v0z" />
    <glyph glyph-name="uniE815" unicode="&#xe815;" 
d="M1003 -64h-982q-8 0 -14.5 6.5t-6.5 14.5v982q0 8 6.5 14.5t14.5 6.5h982q8 0 14.5 -6.5t6.5 -14.5v-982q0 -8 -6.5 -14.5t-14.5 -6.5v0zM981 917h-938v-938h938v938v0zM235 469h503l-92 92q-6 6 -6 15t6 15q7 6 15.5 6t14.5 -6l128 -128v0v0q2 -1 3 -3l2 -4t1.5 -4
t0.5 -4v0v0v0v0q0 -2 -0.5 -4t-1.5 -4l-2 -4t-3 -3l-128 -128q-3 -3 -7 -4.5t-8 -1.5t-8 1.5t-7 4.5q-6 6 -6 15t6 15l92 92h-503q-9 0 -15.5 6t-6.5 15t6.5 15t15.5 6v0z" />
    <glyph glyph-name="uniE816" unicode="&#xe816;" 
d="M1003 -64h-982q-8 0 -14.5 6.5t-6.5 14.5v982q0 8 6.5 14.5t14.5 6.5h982q8 0 14.5 -6.5t6.5 -14.5v-982q0 -8 -6.5 -14.5t-14.5 -6.5v0zM981 917h-938v-938h938v938v0zM497 740v1v0q2 1 3.5 2t3.5 2q4 2 8 2t8 -2q2 -1 3.5 -2t3.5 -2v0v-1l128 -128q6 -6 6 -14.5
t-6 -15.5q-3 -3 -7 -4.5t-8 -1.5t-8 1.5t-7 4.5l-92 92v-503q0 -9 -6 -15.5t-15 -6.5t-15 6.5t-6 15.5v503l-92 -92q-6 -6 -15 -6t-15 6q-6 7 -6 15.5t6 14.5l128 128v0z" />
    <glyph glyph-name="uniE817" unicode="&#xe817;" 
d="M800 625q-3 -3 -7 -4t-8 -1t-8 1.5t-7 4.5l-239 259v-926q0 -8 -6 -14.5t-15 -6.5t-15 6t-6 15v926l-239 -259q-6 -6 -14.5 -6.5t-15.5 5.5q-6 6 -6.5 15t5.5 15l275 298q3 3 7 5t9 2q4 0 8 -1.5t7 -4.5v0v-1l276 -298q6 -6 5.5 -15t-6.5 -15v0z" />
    <glyph glyph-name="uniE818" unicode="&#xe818;" 
d="M512 -64q-106 0 -199 40.5t-162.5 110t-110 162.5t-40.5 199t40.5 199t110 162.5t162.5 110t199 40.5t199 -40.5t162.5 -110t110 -162.5t40.5 -199t-40.5 -199t-110 -162.5t-162.5 -110t-199 -40.5v0zM512 917q-97 0 -182.5 -37t-149 -100.5t-100.5 -149t-37 -182.5
t37 -182.5t100.5 -149t149 -100.5t182.5 -37t182.5 37t149 100.5t100.5 149t37 182.5t-37 182.5t-100.5 149t-149 100.5t-182.5 37v0zM528 242q-3 -4 -7 -5.5t-9 -1.5t-9 1.5t-7 5.5l-192 213q-4 5 -5 11t2 12q2 6 7.5 9.5t11.5 3.5h85v149q0 9 6.5 15t15.5 6h170
q9 0 15.5 -6t6.5 -15v-149h85q6 0 11.5 -3.5t7.5 -9.5q3 -6 2 -12t-5 -11l-192 -213v0zM597 448q-8 0 -14.5 6.5t-6.5 14.5v150h-128v-150q0 -8 -6.5 -14.5t-14.5 -6.5h-59l144 -160l144 160h-59v0z" />
    <glyph glyph-name="uniE819" unicode="&#xe819;" 
d="M512 -64q-106 0 -199 40.5t-162.5 110t-110 162.5t-40.5 199t40.5 199t110 162.5t162.5 110t199 40.5t199 -40.5t162.5 -110t110 -162.5t40.5 -199t-40.5 -199t-110 -162.5t-162.5 -110t-199 -40.5v0zM512 917q-97 0 -182.5 -37t-149 -100.5t-100.5 -149t-37 -182.5
t37 -182.5t100.5 -149t149 -100.5t182.5 -37t182.5 37t149 100.5t100.5 149t37 182.5t-37 182.5t-100.5 149t-149 100.5t-182.5 37v0zM704 341h-149v-85q0 -6 -3.5 -11.5t-9.5 -7.5q-2 -1 -4 -1.5t-5 -0.5q-4 0 -7.5 1t-6.5 4l-213 192q-4 3 -5.5 7t-1.5 9t1.5 9t5.5 7
l213 192q5 4 11 5t12 -2q6 -2 9.5 -7.5t3.5 -11.5v-85h149q9 0 15 -6.5t6 -15.5v-170q0 -9 -6 -15.5t-15 -6.5v0zM683 512h-150q-9 0 -15 6.5t-6 14.5v59l-160 -144l160 -144v59q0 8 6 14.5t15 6.5h150v128v0z" />
    <glyph glyph-name="uniE81A" unicode="&#xe81a;" 
d="M512 -64q-106 0 -199 40.5t-162.5 110t-110 162.5t-40.5 199t40.5 199t110 162.5t162.5 110t199 40.5t199 -40.5t162.5 -110t110 -162.5t40.5 -199t-40.5 -199t-110 -162.5t-162.5 -110t-199 -40.5v0zM512 917q-97 0 -182.5 -37t-149 -100.5t-100.5 -149t-37 -182.5
t37 -182.5t100.5 -149t149 -100.5t182.5 -37t182.5 37t149 100.5t100.5 149t37 182.5t-37 182.5t-100.5 149t-149 100.5t-182.5 37v0zM505 240q-3 -3 -6.5 -4t-7.5 -1q-3 0 -5 0.5t-4 1.5q-6 2 -9.5 7.5t-3.5 11.5v85h-149q-9 0 -15 6.5t-6 15.5v170q0 9 6 15.5t15 6.5h149
v85q0 6 3.5 11.5t9.5 7.5q6 3 12 2t11 -5l213 -192q4 -3 5.5 -7t1.5 -9t-1.5 -9t-5.5 -7l-213 -192v0zM512 592v-59q0 -8 -6.5 -14.5t-14.5 -6.5h-150v-128h150q8 0 14.5 -6.5t6.5 -14.5v-59l160 144l-160 144v0z" />
    <glyph glyph-name="uniE81B" unicode="&#xe81b;" 
d="M512 -64q-106 0 -199 40.5t-162.5 110t-110 162.5t-40.5 199t40.5 199t110 162.5t162.5 110t199 40.5t199 -40.5t162.5 -110t110 -162.5t40.5 -199t-40.5 -199t-110 -162.5t-162.5 -110t-199 -40.5v0zM512 917q-97 0 -182.5 -37t-149 -100.5t-100.5 -149t-37 -182.5
t37 -182.5t100.5 -149t149 -100.5t182.5 -37t182.5 37t149 100.5t100.5 149t37 182.5t-37 182.5t-100.5 149t-149 100.5t-182.5 37v0zM704 405h-85v-149q0 -9 -6.5 -15t-15.5 -6h-170q-9 0 -15.5 6t-6.5 15v149h-85q-6 0 -11.5 3.5t-7.5 9.5q-3 6 -2 12t5 11l192 213
q6 7 16 7t16 -7l192 -213q4 -5 5 -11t-2 -12q-2 -6 -7.5 -9.5t-11.5 -3.5v0zM512 608l-144 -160h59q8 0 14.5 -6t6.5 -15v-150h128v150q0 9 6 15t15 6h59l-144 160v0z" />
    <glyph glyph-name="uniE81C" unicode="&#xe81c;" 
d="M888 370l-361 -426q-3 -4 -7.5 -6t-9.5 -2q-4 0 -8.5 2t-7.5 6l-361 426q-4 5 -5 11t2 12q2 6 7.5 9t11.5 3h213v534q0 9 6 15t15 6h255q9 0 15 -6t6 -15v-534h213q6 0 11 -3t8 -9t2 -12t-5 -11v0zM638 363q-9 0 -15 6t-6 15v1.5v1.5v530h-213v-533q0 -9 -6 -15t-15 -6
h-188l315 -373l316 373h-188v0z" />
    <glyph glyph-name="uniE81D" unicode="&#xe81d;" 
d="M1003 300h-534v-213q0 -6 -3 -11.5t-9 -8.5q-2 -1 -4.5 -1.5t-4.5 -0.5q-4 0 -7.5 1.5t-6.5 4.5l-426 362q-4 3 -6 7t-2 9q0 4 2 8.5t6 7.5l426 362q5 4 11 5t12 -2t9 -8t3 -11v-213h534q8 0 14.5 -6.5t6.5 -14.5v-256q0 -9 -6.5 -15t-14.5 -6v0zM981 556h-529
q-1 0 -2 -0.5t-2 -0.5q-9 0 -15 6.5t-6 15.5v188l-373 -316l373 -316v188q0 9 6 15t15 6h533v214v0z" />
    <glyph glyph-name="uniE81E" unicode="&#xe81e;" 
d="M1016 433l-426 -362q-3 -3 -6.5 -4.5t-7.5 -1.5q-2 0 -4.5 0.5t-4.5 1.5q-6 3 -9 8.5t-3 11.5v213h-534q-8 0 -14.5 6t-6.5 15v255q0 9 6.5 15.5t14.5 6.5h534v213q0 6 3 11t9 8t12 2t11 -5l426 -362q4 -3 6 -7.5t2 -8.5q0 -5 -2 -9t-6 -7v0zM597 765v-189q0 -8 -6 -14.5
t-15 -6.5q-1 0 -2 0.5t-2 0.5h-529v-214h533q9 0 15 -6t6 -15v-188l373 316l-373 316v0z" />
    <glyph glyph-name="uniE81F" unicode="&#xe81f;" 
d="M1003 -64h-982q-9 0 -15 6.5t-6 14.5v982q0 9 6 15t15 6h982q9 0 15 -6t6 -15v-982q0 -8 -6 -14.5t-15 -6.5v0zM981 917h-938v-938h938v938v0zM320 491h85v149q0 9 6.5 15t15.5 6h170q9 0 15.5 -6t6.5 -15v-149h85q6 0 11.5 -3.5t7.5 -9.5q3 -6 2 -12t-5 -11l-192 -213
q-3 -4 -7 -5.5t-9 -1.5t-9 1.5t-7 5.5l-192 213q-4 5 -5 11t2 12q2 6 7.5 9.5t11.5 3.5v0zM512 288l144 160h-59q-9 0 -15 6.5t-6 14.5v150h-128v-150q0 -8 -6 -14.5t-15 -6.5h-59l144 -160v0z" />
    <glyph glyph-name="uniE820" unicode="&#xe820;" 
d="M1003 -64h-982q-8 0 -14.5 6.5t-6.5 14.5v982q0 9 6.5 15t14.5 6h982q8 0 14.5 -6t6.5 -15v-982q0 -8 -6.5 -14.5t-14.5 -6.5v0zM981 917h-938v-938h938v938v0zM519 656q5 4 11 5t12 -2q6 -2 9.5 -7.5t3.5 -11.5v-85h149q9 0 15 -6.5t6 -15.5v-170q0 -9 -6 -15.5
t-15 -6.5h-149v-85q0 -6 -3.5 -11.5t-9.5 -7.5q-2 -1 -4 -1.5t-5 -0.5q-4 0 -7.5 1t-6.5 4l-213 192q-4 3 -5.5 7t-1.5 9t1.5 9t5.5 7l213 192v0zM512 304v59q0 9 6.5 15t14.5 6h150v128h-150q-8 0 -14.5 6.5t-6.5 14.5v59l-160 -144l160 -144v0z" />
    <glyph glyph-name="uniE821" unicode="&#xe821;" 
d="M1003 -64h-982q-8 0 -14.5 6.5t-6.5 14.5v982q0 9 6.5 15t14.5 6h982q8 0 14.5 -6t6.5 -15v-982q0 -8 -6.5 -14.5t-14.5 -6.5v0zM981 917h-938v-938h938v938v0zM320 555h149v85q0 6 3.5 11.5t9.5 7.5q6 3 12 2t11 -5l213 -192q4 -3 5.5 -7t1.5 -9t-1.5 -9t-5.5 -7
l-213 -192q-3 -3 -6.5 -4t-7.5 -1q-3 0 -5 0.5t-4 1.5q-6 2 -9.5 7.5t-3.5 11.5v85h-149q-9 0 -15 6.5t-6 15.5v170q0 9 6 15.5t15 6.5v0zM341 384h150q8 0 14.5 -6t6.5 -15v-59l160 144l-160 144v-59q0 -8 -6.5 -14.5t-14.5 -6.5h-150v-128v0z" />
    <glyph glyph-name="uniE822" unicode="&#xe822;" 
d="M1003 -64h-982q-8 0 -14.5 6.5t-6.5 14.5v982q0 9 6.5 15t14.5 6h982q8 0 14.5 -6t6.5 -15v-982q0 -8 -6.5 -14.5t-14.5 -6.5v0zM981 917h-938v-938h938v938v0zM496 654q6 7 16 7t16 -7l192 -213q4 -5 5 -11t-2 -12q-2 -6 -7.5 -9.5t-11.5 -3.5h-85v-149q0 -9 -6.5 -15
t-15.5 -6h-170q-9 0 -15.5 6t-6.5 15v149h-85q-6 0 -11.5 3.5t-7.5 9.5q-3 6 -2 12t5 11l192 213v0zM427 448q8 0 14.5 -6t6.5 -15v-150h128v150q0 9 6.5 15t14.5 6h59l-144 160l-144 -160h59v0z" />
    <glyph glyph-name="uniE823" unicode="&#xe823;" 
d="M891 505q-3 -6 -7 -9t-11 -3h-214v-533q0 -9 -6 -15t-15 -6h-255q-9 0 -15 6t-6 15v533h-214q-6 0 -11 3t-7 9q-3 5 -2 11.5t5 10.5l361 426q6 7 16.5 7t16.5 -7l361 -426q4 -4 5 -10.5t-2 -11.5v0zM510 907l-315 -372h188q9 0 15 -6.5t6 -14.5v-533h213v533q0 8 6 14.5
t15 6.5h188l-316 372v0z" />
    <glyph glyph-name="uniE824" unicode="&#xe824;" 
d="M1001 428h-928l198 -198q6 -6 6 -15t-6 -15q-4 -3 -7.5 -4.5t-7.5 -1.5q-5 0 -8.5 1.5t-7.5 4.5l-234 234q-1 1 -2 3l-2 4t-1.5 4t-0.5 4v0v0v0v0q0 2 0.5 4t1.5 4l2 4t2 3l234 234q7 6 15.5 6t15.5 -6q6 -6 6 -15t-6 -15l-198 -198h906v213q0 9 6.5 15t15.5 6t15 -6
t6 -15v-234q0 -9 -6 -15t-15 -6v0z" />
    <glyph glyph-name="uniE825" unicode="&#xe825;" 
d="M1001 194q-9 0 -15.5 6t-6.5 15v213h-906l198 -198q6 -6 6 -15t-6 -15q-4 -3 -7.5 -4.5t-7.5 -1.5q-5 0 -8.5 1.5t-7.5 4.5l-234 234q-1 1 -2.5 3t-1.5 4q-1 2 -1.5 4t-0.5 4v0v0v0v0q0 2 0.5 4t1.5 4q0 2 1.5 4t2.5 3l234 234q7 6 15.5 6t15.5 -6q6 -6 6 -15t-6 -15
l-198 -198h928q9 0 15 -6t6 -15v-234q0 -9 -6 -15t-15 -6v0z" />
    <glyph glyph-name="uniE826" unicode="&#xe826;" 
d="M1001 88q-9 0 -15.5 6t-6.5 15v234q0 44 -16.5 82.5t-45.5 67.5t-68 46t-83 17h-2t-2 1h-690l177 -178q6 -6 6 -15t-6 -15q-3 -3 -7 -4.5t-8 -1.5t-8 1.5t-7 4.5l-212 212q-3 3 -5 7t-2 9q0 2 0.5 4t1.5 4q0 2 1.5 4t2.5 3l213 213q6 6 15 6t15 -6q6 -7 6 -15.5t-6 -14.5
l-176 -177h693q53 0 99.5 -20t81.5 -54.5t55 -81t20 -99.5v-234q0 -9 -6.5 -15t-14.5 -6v0z" />
    <glyph glyph-name="uniE827" unicode="&#xe827;" 
d="M512 -64q-106 0 -199 40.5t-162.5 110t-110 162.5t-40.5 199t40.5 199t110 162.5t162.5 110t199 40.5t199 -40.5t162.5 -110t110 -162.5t40.5 -199t-40.5 -199t-110 -162.5t-162.5 -110t-199 -40.5v0zM512 917q-97 0 -182.5 -37t-149 -100.5t-100.5 -149t-37 -182.5
t37 -182.5t100.5 -149t149 -100.5t182.5 -37t182.5 37t149 100.5t100.5 149t37 182.5t-37 182.5t-100.5 149t-149 100.5t-182.5 37v0zM645 427h-1.5h-0.5h-314l91 -92q7 -6 7 -15t-7 -15q-3 -3 -7 -4.5t-8 -1.5t-8 1.5t-7 4.5l-128 128q-1 1 -2.5 3t-1.5 4q-1 2 -1.5 4
t-0.5 4v0v0v0v0q0 2 0.5 4t1.5 4q0 2 1.5 4t2.5 3l128 128q7 6 15.5 6t14.5 -6q7 -6 7 -15t-7 -15l-91 -92h311q39 0 62 23t23 63v64q0 9 6.5 15t15.5 6q8 0 14.5 -6t6.5 -15v-64q0 -56 -34 -91t-89 -37v0z" />
    <glyph glyph-name="uniE828" unicode="&#xe828;" 
d="M1003 -64h-982q-8 0 -14.5 6.5t-6.5 14.5v982q0 8 6.5 14.5t14.5 6.5h982q8 0 14.5 -6.5t6.5 -14.5v-982q0 -8 -6.5 -14.5t-14.5 -6.5v0zM981 917h-938v-938h938v938v0zM258 456q0 2 1.5 4t2.5 3l128 128q6 6 15 6t15 -6q7 -6 7 -15t-7 -15l-91 -92h311q39 0 62 23t23 63
v64q0 9 6.5 15t15.5 6q8 0 14.5 -6t6.5 -15v-64q0 -56 -34 -91t-89 -37h-1.5h-0.5h-314l91 -92q7 -6 7 -15t-7 -15q-3 -3 -7 -4.5t-8 -1.5t-8 1.5t-7 4.5l-128 128q-1 1 -2.5 3t-1.5 4q-1 2 -1.5 4t-0.5 4v0v0v0v0q0 2 0.5 4t1.5 4v0z" />
    <glyph glyph-name="uniE829" unicode="&#xe829;" 
d="M766 299h-693l176 -177q6 -6 6 -15t-6 -15q-3 -4 -7 -5.5t-8 -1.5t-8 1.5t-7 5.5l-213 213v0v0q-1 1 -2.5 3t-1.5 4q-1 2 -1.5 4t-0.5 4v0v0v0v0q0 2 0.5 4t1.5 4q0 2 1.5 4t2.5 3l213 213q6 7 15 7t15 -7q6 -6 6 -14.5t-6 -15.5l-176 -177h693q45 0 83.5 17t67.5 46
t45.5 68t16.5 83v234q0 9 6.5 15.5t15.5 6.5t15 -6.5t6 -15.5v-234q0 -53 -20 -99.5t-55 -81.5t-81.5 -55t-99.5 -20v0z" />
    <glyph glyph-name="uniE82A" unicode="&#xe82a;" 
d="M767 299h-694l176 -177q7 -6 7 -15t-7 -15q-3 -4 -7 -5.5t-8 -1.5t-8 1.5t-7 5.5l-213 213q-1 1 -2.5 3t-1.5 4q-2 4 -2 8t2 8q0 2 1.5 4t2.5 3l213 213q6 7 15 7t15 -7q7 -6 7 -14.5t-7 -15.5l-176 -177h694q44 0 82.5 17t67.5 46t45.5 68t16.5 83t-16.5 83t-45.5 67.5
t-67.5 45.5t-82.5 17h-1.5h-1.5h-0.5h-1.5h-741q-9 0 -15 6.5t-6 14.5q0 9 6 15.5t15 6.5h741q1 0 1.5 -0.5l0.5 -0.5q1 0 1.5 0.5t1.5 0.5q52 0 98.5 -20.5t81.5 -55t55 -81t20 -99.5t-20 -99.5t-55 -81.5t-81.5 -55t-98.5 -20v0z" />
    <glyph glyph-name="uniE82B" unicode="&#xe82b;" 
d="M767 88h-1.5h-1.5h-0.5h-1.5h-741q-9 0 -15 6t-6 15t6 15t15 6h741h1.5h0.5h1.5h1.5q44 0 82.5 17t67.5 45.5t45.5 67.5t16.5 83t-16.5 82.5t-45.5 67.5t-67.5 46t-82.5 17h-3t-2 1h-690l177 -178q7 -6 7 -15t-7 -15q-3 -3 -7 -4.5t-8 -1.5t-8 1.5t-7 4.5l-212 212
q-3 3 -5 7t-2 9v0v0q0 2 0.5 4t1.5 4q0 2 1.5 4t2.5 3l213 213q6 6 15 6t15 -6q7 -6 7 -15t-7 -15l-176 -177h694q52 0 98.5 -20t81.5 -54.5t55 -81t20 -99.5t-20 -99.5t-55 -81t-81.5 -54.5t-98.5 -20v0z" />
    <glyph glyph-name="uniE82C" unicode="&#xe82c;" 
d="M1013 21q-1 -8 -7 -14t-14 -6h-1v0q-9 1 -15 7t-6 15q0 5 -8.5 57t-56 113.5t-149 113.5t-286.5 56v-212q0 -7 -5.5 -12t-11.5 -8q-2 -1 -4 -1.5t-5 -0.5t-7 1.5t-6 3.5l-423 362q-4 3 -6 7.5t-2 9.5q0 4 2 8.5t6 7.5l423 362q4 4 10.5 5t11.5 -2q6 -3 11.5 -7.5
t5.5 -10.5v-214q26 -1 71.5 -6t100 -21t113 -47t109.5 -83q41 -41 71.5 -92.5t49 -112t25.5 -130.5t3 -149v0zM834 475q-57 58 -125 88t-126 42.5t-97.5 13t-40.5 0.5v0v0h-0.5h-0.5q-8 0 -12.5 6.5t-4.5 15.5v192l-373 -320l373 -320v192q0 9 4.5 15t12.5 6
q78 0 146.5 -9.5t126.5 -28.5t105.5 -47t84.5 -66q19 -19 34 -39t26 -39q-6 47 -17 89t-27.5 79t-38.5 69.5t-50 60.5v0z" />
    <glyph glyph-name="uniE82D" unicode="&#xe82d;" 
d="M1003 55v0v0q-9 0 -15 6t-7 14q0 1 -16 69.5t-89 133.5q-30 26 -66 45.5t-79 31.5t-92.5 17t-105.5 3v-171q0 -6 -3 -11.5t-9 -7.5q-2 -1 -4.5 -1.5t-4.5 -0.5q-4 0 -7.5 1t-6.5 4l-341 298q-4 3 -6 7t-2 8q0 5 2 9t5 7l341 319q5 5 11.5 6t12.5 -2q5 -2 8.5 -7.5
t3.5 -11.5v-169q22 0 58.5 -2.5t80.5 -14t92 -34.5t93 -64q42 -37 73 -84.5t52 -105t31.5 -125.5t10.5 -146q0 -8 -6 -14.5t-15 -6.5v0zM829 506q-51 45 -106 66.5t-101 29.5t-76.5 7t-31.5 -1v0h-1h-0.5h-0.5q-1 0 -1.5 0.5t-1.5 0.5h-2t-2 1q-1 0 -2 0.5t-2 1.5
q-1 0 -1.5 0.5l-1.5 1.5q-1 0 -1.5 1t-1.5 2q0 1 -0.5 1.5l-1.5 1.5q0 1 -0.5 2t-0.5 2t-0.5 1.5t-0.5 1.5v0.5v0.5v1v0v143l-288 -270l288 -251v144v2v2q1 1 1 2v2q1 1 1.5 2t0.5 2q1 0 1.5 1t1.5 2q0 1 1 1.5t2 0.5l1.5 1.5l1.5 1.5h2t2 1q1 0 2 0.5t2 0.5h0.5h0.5v0v0v0
v0q64 3 120.5 -1.5t105.5 -18t91 -35.5t76 -53q20 -17 35.5 -35.5t27.5 -37.5q-16 87 -51 154.5t-88 115.5v0zM53 502l324 -282q6 -6 7 -14.5t-5 -15.5q-3 -4 -7.5 -5.5t-8.5 -1.5t-7.5 1t-6.5 4l-342 298q-3 3 -5 7t-2 8q0 5 2 9t5 7l341 319q7 6 15.5 6t14.5 -7
q6 -6 6 -15t-7 -15l-324 -303v0z" />
    <glyph glyph-name="uniE82E" unicode="&#xe82e;" 
d="M435 450l495 -475q6 -6 6.5 -14.5t-5.5 -15.5q-4 -3 -8 -4.5t-8 -1.5t-7.5 1.5t-7.5 4.5l-510 489q-3 3 -5 7t-2 9q0 4 2 8t5 7l510 490q7 6 15.5 5.5t15.5 -6.5q6 -6 5.5 -15t-6.5 -15l-495 -474v0zM137 450l495 -475q6 -6 6.5 -14.5t-5.5 -15.5q-4 -3 -8 -4.5t-8 -1.5
t-7.5 1.5t-7.5 4.5l-510 489q-3 3 -5 7t-2 9q0 4 2 8t5 7l510 490q7 6 15.5 5.5t15.5 -6.5q6 -6 5.5 -15t-6.5 -15l-495 -474v0z" />
    <glyph glyph-name="uniE82F" unicode="&#xe82f;" 
d="M930 434l-511 -490q-3 -3 -6.5 -4.5t-7.5 -1.5q-5 0 -9 1.5t-7 5.5q-6 6 -5.5 15t6.5 15l495 474l-495 474q-6 6 -6.5 15t5.5 15q6 7 15 7t15 -6l511 -490q3 -3 5 -7t2 -8t-2 -8t-5 -7v0zM639 449q0 -4 -2 -8t-5 -7l-511 -490q-3 -3 -6.5 -4.5t-7.5 -1.5q-5 0 -9 1.5
t-7 5.5q-6 6 -5.5 15t6.5 15l495 474l-495 474q-6 6 -6.5 15t5.5 15q6 7 15 7t15 -6l511 -490q3 -3 5 -7t2 -8v0z" />
    <glyph glyph-name="uniE830" unicode="&#xe830;" horiz-adv-x="1022" 
d="M1022 939v-235q0 -9 -6.5 -15t-15.5 -6q-8 0 -13.5 7t-5.5 15v184l-303 -304q-35 -35 -62.5 -75.5t-46 -85.5t-28 -93t-9.5 -98v0v0v-275q0 -9 -6 -15.5t-15 -6.5t-15.5 6.5t-6.5 14.5v262v0v0v14v0v0q0 50 -9.5 98t-28 93t-45.5 85.5t-62 75.5l-303 304v-184
q0 -8 -5.5 -15t-14.5 -7t-15 6t-6 15v235v0v0q0 2 0.5 4t0.5 4q1 2 2.5 3.5t2.5 3.5v0v0v0v0q2 1 3.5 2.5t3.5 1.5q2 1 3.5 1.5t3.5 0.5h0.5h0.5h234q9 0 15.5 -6t6.5 -15t-7 -14.5t-16 -5.5h-183l303 -304q49 -49 83.5 -108t53.5 -124q18 65 52.5 124t84.5 108l303 304
h-184q-8 0 -15 5.5t-7 14.5t6 15t15 6h234h1.5h0.5q2 0 3.5 -0.5t3.5 -1.5q3 -1 6 -4t5 -7q1 -1 1 -2.5v-2.5t0.5 -1.5t0.5 -1.5v0z" />
    <glyph glyph-name="uniE831" unicode="&#xe831;" 
d="M1017 486l-342 -298q-3 -3 -6.5 -4t-7.5 -1t-8.5 1.5t-7.5 5.5q-6 7 -5 15.5t7 14.5l324 282l-324 303q-7 6 -7 15t6 15q6 7 14.5 7t15.5 -6l341 -319q3 -3 5 -7t2 -9q0 -4 -2 -8t-5 -7v0zM875 501q0 -4 -2 -8t-6 -7l-341 -298q-3 -3 -6.5 -4t-7.5 -1q-2 0 -4.5 0.5
t-4.5 1.5q-6 2 -9 7.5t-3 11.5v171q-56 2 -105.5 -3t-92.5 -17t-79 -31.5t-66 -45.5q-73 -65 -89 -133.5t-16 -69.5q-1 -8 -7 -14t-15 -6v0v0q-9 0 -15 6.5t-6 14.5q0 78 10.5 146t31.5 125.5t52 105t73 84.5q45 41 93 64t92 34.5t80.5 14t58.5 2.5v169q0 6 3.5 11.5
t8.5 7.5q6 3 12.5 2t11.5 -6l341 -319q3 -3 5 -7t2 -9v0zM533 772v-143v0v-1v-0.5v-0.5q0 -1 -0.5 -1.5t-0.5 -1.5t-0.5 -2t-0.5 -2l-1.5 -1.5t-0.5 -1.5q-1 -1 -1.5 -2t-1.5 -1l-1.5 -1.5l-1.5 -1.5q-1 0 -2 -0.5t-2 -0.5q-1 -1 -2 -1h-2t-1.5 -0.5t-1.5 -0.5h-0.5h-0.5h-1
v0q-1 0 -31.5 1t-77 -7t-101.5 -29.5t-105 -67.5q-53 -47 -88 -114.5t-51 -154.5q12 19 27.5 37.5t35.5 35.5q34 31 76 53t91 35.5t105.5 18t120.5 1.5v0v0v0v0h0.5h0.5q1 0 2 -0.5t2 -0.5q1 -1 2 -1h2l1.5 -1.5l1.5 -1.5q1 0 2 -0.5t1 -1.5q1 -1 1.5 -2t1.5 -1q0 -1 0.5 -2
t1.5 -2v-2t1 -2v-2v-2v-144l288 251l-288 270v0z" />
    <glyph glyph-name="uniE832" unicode="&#xe832;" 
d="M1022 449v0v0v0v0q0 -2 -0.5 -4t-1.5 -4l-2 -4t-2 -3l-235 -234q-3 -3 -6.5 -4.5t-8.5 -1.5q-4 0 -8 1.5t-7 4.5q-6 6 -6 15t6 15l198 198h-928q-9 0 -15 6t-6 15v234q0 9 6 15t15 6t15 -6t6 -15v-213h907l-198 198q-6 6 -6 15t6 15q7 6 15.5 6t14.5 -6l235 -234
q1 -1 2 -3l2 -4t1.5 -4t0.5 -4v0z" />
    <glyph glyph-name="uniE833" unicode="&#xe833;" 
d="M1020 457q2 -4 2 -8t-2 -8l-2 -4t-2 -3l-235 -234q-3 -3 -6.5 -4.5t-8.5 -1.5q-4 0 -7.5 1.5t-7.5 4.5q-6 6 -6 15t6 15l198 198h-906v-213q0 -9 -6.5 -15t-15.5 -6t-15 6t-6 15v234q0 9 6 15t15 6h928l-198 198q-6 6 -6 15t6 15q7 6 15.5 6t14.5 -6l235 -234q1 -1 2 -3
l2 -4v0z" />
    <glyph glyph-name="uniE834" unicode="&#xe834;" 
d="M1022 577v0v0q0 -5 -2 -9t-5 -7l-212 -212q-3 -3 -7 -4.5t-8 -1.5t-8 1.5t-7 4.5q-7 6 -7 15t7 15l177 178h-690q-1 -1 -2 -1h-3q-44 0 -82.5 -17t-67.5 -46t-46 -67.5t-17 -82.5v-234q0 -9 -6 -15t-15 -6t-15 6t-6 15v234q0 53 20 99.5t55 81t81.5 54.5t98.5 20h694
l-176 177q-7 6 -7 14.5t7 15.5q6 6 15 6t15 -6l213 -213q1 -2 2 -3.5t2 -3.5t1.5 -4t0.5 -4v0v0v0v0v0z" />
    <glyph glyph-name="uniE835" unicode="&#xe835;" 
d="M512 -64q-106 0 -199 40.5t-162.5 110t-110 162.5t-40.5 199t40.5 199t110 162.5t162.5 110t199 40.5t199 -40.5t162.5 -110t110 -162.5t40.5 -199t-40.5 -199t-110 -162.5t-162.5 -110t-199 -40.5v0zM512 917q-97 0 -182.5 -37t-149 -100.5t-100.5 -149t-37 -182.5
t37 -182.5t100.5 -149t149 -100.5t182.5 -37t182.5 37t149 100.5t100.5 149t37 182.5t-37 182.5t-100.5 149t-149 100.5t-182.5 37v0zM766 440q0 -2 -1.5 -4t-2.5 -3l-128 -128q-3 -3 -7 -4.5t-8 -1.5t-8 1.5t-7 4.5q-7 6 -7 15t7 15l91 92h-311q-39 0 -62 -23t-23 -63v-64
q0 -8 -6.5 -14.5t-15.5 -6.5q-8 0 -14.5 6.5t-6.5 14.5v64q0 56 34 91t89 37h1.5h0.5h314l-91 92q-7 6 -7 15t7 15q6 6 14.5 6t15.5 -6l128 -128q1 -1 2.5 -3t1.5 -4q1 -2 1.5 -4t0.5 -4v0v0v0v0q0 -2 -0.5 -4t-1.5 -4v0z" />
    <glyph glyph-name="uniE836" unicode="&#xe836;" 
d="M1003 -64h-982q-8 0 -14.5 6.5t-6.5 14.5v982q0 8 6.5 14.5t14.5 6.5h982q8 0 14.5 -6.5t6.5 -14.5v-982q0 -8 -6.5 -14.5t-14.5 -6.5v0zM981 917h-938v-938h938v938v0zM379 469h1.5h0.5h314l-91 92q-7 6 -7 15t7 15q6 6 14.5 6t15.5 -6l128 -128q1 -1 2.5 -3t1.5 -4
q1 -2 1.5 -4t0.5 -4v0v0v0v0q0 -2 -0.5 -4t-1.5 -4q0 -2 -1.5 -4t-2.5 -3l-128 -128q-3 -3 -7 -4.5t-8 -1.5t-8 1.5t-7 4.5q-7 6 -7 15t7 15l91 92h-311q-39 0 -62 -23t-23 -63v-64q0 -8 -6.5 -14.5t-15.5 -6.5q-8 0 -14.5 6.5t-6.5 14.5v64q0 56 34 91t89 37v0z" />
    <glyph glyph-name="uniE837" unicode="&#xe837;" 
d="M1022 319q0 -2 -0.5 -3.5t-1.5 -3.5l-2 -4t-2 -3l-213 -213q-3 -4 -7 -5.5t-8 -1.5t-8 1.5t-7 5.5q-7 6 -7 14.5t7 15.5l176 177h-694q-52 0 -98.5 20t-81.5 55t-55 81.5t-20 99.5v234q0 9 6 15.5t15 6.5t15 -6.5t6 -15.5v-234q0 -44 17 -83t46 -68t67.5 -46t82.5 -17
h694l-176 177q-7 7 -7 15.5t7 14.5q6 7 15 7t15 -7l213 -213q1 -1 2 -3l2 -4t1.5 -4t0.5 -4v0v0v0v-1v0z" />
    <glyph glyph-name="uniE838" unicode="&#xe838;" 
d="M1001 768h-741h-1.5h-0.5h-1.5h-1.5q-44 0 -82.5 -17t-67.5 -46t-46 -67.5t-17 -82.5t17 -83t46 -68t67.5 -46t82.5 -17h694l-176 177q-7 7 -7 15.5t7 14.5q6 7 14.5 7t15.5 -7l213 -213q1 -1 2 -3l2 -4q2 -4 2 -8t-2 -8l-2 -4t-2 -3v0v0l-213 -213q-3 -4 -7 -5.5
t-8 -1.5t-8 1.5t-7 5.5q-7 6 -7 15t7 15l176 177h-694q-52 0 -99 20t-81.5 55t-54.5 81.5t-20 99.5t20 99.5t54.5 81t81.5 55t99 20.5q1 0 1.5 -0.5t1.5 -0.5l0.5 0.5t1.5 0.5h741q8 0 14.5 -6.5t6.5 -15.5q0 -8 -6.5 -14.5t-14.5 -6.5v0z" />
    <glyph glyph-name="uniE839" unicode="&#xe839;" 
d="M803 349q-3 -3 -7 -4.5t-8 -1.5t-8 1.5t-7 4.5q-7 6 -7 15t7 15l177 178h-690q-1 -1 -2 -1h-3q-44 0 -82.5 -17t-67.5 -46t-46 -67.5t-17 -82.5t17 -83t46 -67.5t67.5 -45.5t82.5 -17h1.5h1.5h0.5h1.5h741q8 0 14.5 -6t6.5 -15t-6.5 -15t-14.5 -6h-741h-1.5h-0.5h-1.5
h-1.5q-52 0 -99 20t-81.5 54.5t-54.5 81t-20 99.5t20 99.5t54.5 81t81.5 54.5t99 20h694l-176 177q-7 6 -7 14.5t7 15.5q6 6 14.5 6t15.5 -6l213 -213v0v0q1 -2 2 -3.5t2 -3.5t1.5 -4t0.5 -4v0v0q0 -5 -2 -9t-5 -7l-212 -212v0z" />
    <glyph glyph-name="uniE83A" unicode="&#xe83a;" 
d="M1007 496l-423 -362q-3 -2 -6.5 -3.5t-7.5 -1.5q-2 0 -4 0.5t-4 1.5q-6 3 -11.5 8t-5.5 12v212q-185 -4 -286.5 -55.5t-149 -113.5t-56.5 -114t-9 -57q0 -9 -6 -15t-14 -7h-0.5h-0.5q-8 0 -14 6t-7 14q-4 79 3 149t25.5 130.5t48.5 112t72 92.5q51 52 109.5 83t113.5 47
t100.5 21t70.5 6v214q0 6 5.5 10.5t11.5 7.5q5 3 11 2t11 -5l423 -362q4 -3 6 -7.5t2 -8.5q0 -5 -2 -9.5t-6 -7.5v0zM588 833v-182q2 -2 3 -5t0 -7q0 -8 -5.5 -13.5t-12.5 -5.5q-1 -1 -1.5 -1h-1.5v0v0h-0.5h-0.5q-1 0 -40 -0.5t-97.5 -13t-126 -42.5t-125.5 -88
q-27 -28 -49 -60.5t-38.5 -69.5t-27.5 -79t-17 -89q11 19 25.5 39t33.5 39q37 38 85 66t106 47t126 28.5t146 9.5q9 0 15.5 -6t6.5 -15q0 -3 -1 -6t-3 -5v-181l373 320l-373 320v0z" />
    <glyph glyph-name="uniE83B" unicode="&#xe83b;" 
d="M804 497q-3 -3 -7 -4.5t-8 -1.5t-8 1.5t-7 4.5q-6 6 -6 15t6 15l178 178h-732q-2 0 -3.5 -0.5t-3.5 -0.5q-70 0 -120 -50t-50 -121q0 -70 50 -120t120 -50q1 0 1.5 -0.5l0.5 -0.5q1 0 1.5 0.5t1.5 0.5h588h1l1 -1q0 1 1 1h2q44 0 82.5 -17t67.5 -45.5t46 -67.5t17 -83
t-17 -83t-46 -68t-67.5 -46t-82.5 -17q-1 0 -1.5 0.5l-0.5 0.5q-1 0 -1.5 -0.5t-1.5 -0.5h-785q-9 0 -15 6.5t-6 14.5q0 9 6 15.5t15 6.5h785h1h1h1h2q70 0 120 50t50 121q0 70 -50 120t-120 50q-1 0 -1.5 0.5l-0.5 0.5q-1 0 -1.5 -0.5t-1.5 -0.5h-588q-1 0 -1.5 0.5
t-1.5 0.5l-0.5 -0.5t-1.5 -0.5q-44 0 -83 17t-67.5 46t-45.5 67.5t-17 82.5t16 82t44 67t65.5 46t80.5 18q2 1 4 1.5t4 0.5h736l-176 176q-6 6 -6 15t6 15t15 6t15 -6l208 -207q5 -3 8.5 -9t3.5 -12v-1v0q0 -4 -2 -8t-4 -7l-214 -213v0z" />
    <glyph glyph-name="uniE83C" unicode="&#xe83c;" horiz-adv-x="1022" 
d="M1022 768q0 -5 -2 -8.5t-4 -6.5v0v0l-171 -171q-3 -3 -7 -4.5t-8 -1.5t-8 1.5t-7 4.5q-6 7 -6 15.5t6 15.5l135 135h-758q-1 0 -3 -0.5t-4 -0.5q-57 0 -97 -41t-40 -98t40 -98t97 -41h1.5h0.5h0.5h1.5h642h2.5t2.5 -1q2 1 3 1h3q74 0 127 -53t53 -128t-53 -128t-127 -53
h-3t-2 1q-1 -1 -2 -1h-2h-760l134 -134q6 -7 6 -15.5t-6 -15.5q-4 -3 -7.5 -4.5t-8.5 -1.5q-4 0 -7.5 1.5t-7.5 4.5l-170 171q-1 2 -2.5 3.5t-2.5 3.5q-1 4 -1 8t1 8q1 2 2 3.5t3 3.5v0v0l170 171q7 6 15.5 6t15.5 -6q6 -6 6 -15t-6 -15l-134 -135h760h2h2h2h3q57 0 97 41
t40 98t-40 98t-97 41q-2 0 -4 0.5t-3 0.5h-2h-1h-642v0v0q-1 -1 -2.5 -1h-2.5q-74 0 -127 53t-53 128t53 128t127 53h1.5h0.5h0.5h1.5h760l-134 135q-6 6 -6 15t6 15t15 6t15 -6l171 -171v0v0q1 -1 2 -3l2 -4t1.5 -4t0.5 -4v0v0v0v0v0v0v0z" />
    <glyph glyph-name="uniE83D" unicode="&#xe83d;" horiz-adv-x="1020" 
d="M1014 754q-4 -3 -7.5 -4.5t-7.5 -1.5q-5 0 -8.5 1.5t-6.5 4.5l-134 134v-763q0 -1 -0.5 -2t-0.5 -2t0.5 -2t0.5 -3q0 -74 -53 -127t-128 -53t-127.5 53t-52.5 127v3v2v2v2v644v2.5t1 2.5q-1 2 -1 3v3q0 57 -40.5 97.5t-98.5 40.5q-57 0 -97.5 -40.5t-40.5 -97.5
q0 -3 -0.5 -5t-0.5 -4v-2v-2v-760l135 135q6 6 15 6t15 -6t6 -15t-6 -15l-170 -170v0v0q-3 -3 -6.5 -4.5t-8.5 -1.5q-2 0 -4 0.5t-4 1.5q-2 0 -4 1.5t-3 2.5l-170 170q-6 6 -6 15t6 15t15 6t15 -6l134 -134v763v2t1 2q-1 1 -1 2.5v2.5q0 74 53 127t127 53q75 0 128 -53
t53 -127q0 -2 -0.5 -3t-0.5 -3q0 -1 0.5 -2.5t0.5 -2.5v-644q0 -1 -0.5 -2t-0.5 -2t0.5 -2t0.5 -3q0 -57 40.5 -97.5t97.5 -40.5t97.5 40.5t40.5 97.5q0 3 0.5 5t1.5 4v0.5v1.5v762l-135 -135q-7 -6 -15.5 -6t-14.5 6q-7 6 -7 15t7 15l170 170q3 3 6.5 4.5t7.5 1.5h0.5h0.5
v0v0v0v0q2 0 4 -0.5t4 -1.5q1 0 2.5 -1t2.5 -2l0.5 -0.5t1.5 -0.5l170 -170q6 -6 6 -15t-6 -15v0z" />
    <glyph glyph-name="uniE83E" unicode="&#xe83e;" 
d="M824 -64q-41 0 -98 23.5t-123.5 66t-139 102t-145.5 131.5q-78 78 -146 164t-112 164t-56.5 141t19.5 96q1 0 1.5 0.5t0.5 1.5l153 129q3 3 7 4.5t9 0.5q4 0 7.5 -2t6.5 -6l193 -234q4 -6 4.5 -13t-4.5 -13l-96 -135l316 -316l135 96q6 5 13 4.5t13 -4.5l234 -192
q4 -3 6 -7t2 -8q1 -4 -0.5 -8t-4.5 -8l-129 -153l-1 -1l-1 -1q-12 -12 -28 -17.5t-36 -5.5v0zM54 794q-18 -20 -7.5 -68t48.5 -116t102 -150.5t152 -169.5q76 -77 148.5 -135t135 -97.5t112 -59t79.5 -19.5q12 0 20 2.5t14 7.5l115 136l-206 168l-136 -97q-6 -4 -14 -3.5
t-13 5.5l-342 342q-5 5 -6 13t4 14l97 136l-168 205l-135 -114v0z" />
    <glyph glyph-name="uniE83F" unicode="&#xe83f;" 
d="M875 469q-9 0 -15 6.5t-6 15.5t6 15t15 6q45 0 76 31t31 76t-31 76t-76 31h-247l91 -92q6 -6 6 -15t-6 -15q-3 -3 -7 -4.5t-8 -1.5t-8 1.5t-7 4.5l-128 128q-6 6 -6 15t6 15l128 128q6 6 15 6t15 -6t6 -15t-6 -15l-91 -92h247q63 0 106 -43t43 -106t-43 -106.5
t-106 -43.5v0zM305 557l316 -316l135 97q6 4 13 3.5t13 -4.5l234 -192q4 -3 6 -6.5t2 -8.5q1 -4 -0.5 -8t-4.5 -7l-129 -154l-1 -1l-1 -1q-12 -11 -28 -17t-36 -6q-41 0 -98 23.5t-123.5 66t-139 102t-145.5 131.5q-78 79 -146 164.5t-112 163.5t-56.5 141t19.5 96
q1 0 1.5 1l0.5 1l153 129q3 3 7 4.5t9 0.5q4 0 7.5 -2t6.5 -5l193 -235q4 -6 4.5 -13t-4.5 -13l-96 -135v0zM189 909l-136 -116q-18 -18 -7.5 -66t48.5 -115.5t102 -150.5t153 -171q76 -77 148.5 -135t135 -97.5t112 -59t79.5 -19.5q12 0 20 2.5t14 7.5l115 136l-206 168
l-136 -97q-6 -4 -14 -3.5t-13 5.5l-342 342q-5 5 -5.5 13t3.5 14l97 136l-168 206v0z" />
    <glyph glyph-name="uniE840" unicode="&#xe840;" horiz-adv-x="1028" 
d="M781 563q-5 -4 -12.5 -4.5t-13.5 3.5l-134 96l-316 -313l96 -134q5 -5 4.5 -12.5t-4.5 -12.5l-192 -233q-3 -3 -6.5 -5t-8.5 -2l-0.5 -0.5t-1.5 -0.5q-3 0 -7 1.5t-6 3.5l-154 129l-0.5 0.5t-1.5 0.5q-30 30 -21 89t57 143q21 38 49.5 79.5t62 83.5t72 85t80.5 85
q72 70 143.5 128.5t137 99.5t122 64t97.5 23q20 0 36.5 -6t27.5 -17q1 0 1.5 -1l0.5 -1l130 -151q2 -3 3.5 -7t1.5 -9q-1 -4 -3 -7.5t-5 -6.5l-235 -191v0zM857 907q-6 5 -14.5 8t-19.5 3q-36 0 -88.5 -22.5t-115 -62.5t-130.5 -95.5t-136 -122.5q-41 -41 -78.5 -83t-70 -83
t-60 -80.5t-48.5 -77.5q-45 -79 -51 -123t8 -57l136 -114l168 203l-97 135q-5 6 -4 13.5t6 13.5l341 338q6 6 14 6.5t14 -4.5l136 -96l205 167l-115 134v0zM836 317q39 0 74 -14.5t62 -41.5t41.5 -61.5t14.5 -73.5q0 -38 -14.5 -72.5t-41.5 -61.5t-62 -41.5t-74 -14.5
q-38 0 -73 14.5t-63 41.5q-27 27 -41.5 61.5t-14.5 72.5t14.5 73t41.5 62q28 27 63 41.5t73 14.5v0zM942 231q-21 21 -48.5 32t-57.5 11q-24 0 -47 -7.5t-42 -21.5l208 -207q15 19 22.5 41.5t7.5 46.5q0 30 -11 57t-32 48v0zM731 22q21 -21 48 -32.5t57 -11.5q25 0 47.5 8
t41.5 22l-208 207q-14 -19 -22 -41.5t-8 -47.5q0 -29 11 -56t33 -48v0z" />
    <glyph glyph-name="uniE841" unicode="&#xe841;" horiz-adv-x="1028" 
d="M193 -64q-4 0 -7.5 1.5t-6.5 3.5l-154 129q0 1 -1 1.5t-1 1.5q-30 29 -21 88.5t57 144.5q22 39 50 80.5t62 84t72.5 85.5t81.5 86q71 71 143 129.5t138 100.5t122.5 65t97.5 23q21 0 37 -6t28 -17q0 -1 1 -1.5l1 -0.5l130 -153q3 -3 4 -7t1 -8q0 -5 -2.5 -8.5t-5.5 -6.5
l-235 -192q-6 -5 -13.5 -5.5t-12.5 4.5l-136 96l-317 -316l97 -135q4 -5 4 -12.5t-5 -12.5l-192 -235q-3 -3 -7 -5.5t-8 -2.5h-0.5h-1.5v0zM826 917q-36 0 -89 -22.5t-115 -62.5t-130.5 -96.5t-136.5 -123.5q-42 -42 -79.5 -84t-70.5 -83.5t-60.5 -81.5t-48.5 -78
q-45 -80 -50.5 -124.5t7.5 -57.5l137 -115l169 205l-98 136q-4 6 -3.5 14t5.5 13l343 342q6 5 13.5 6t14.5 -4l136 -97l206 168l-115 135q-6 6 -15 8.5t-20 2.5v0z" />
    <glyph glyph-name="uniE842" unicode="&#xe842;" 
d="M1002 534h-41q-9 0 -15.5 6t-6.5 15v42q0 9 6.5 15.5t15.5 6.5h41q9 0 15.5 -6.5t6.5 -15.5v-42q0 -9 -6.5 -15t-15.5 -6v0zM831 534h-41q-9 0 -15.5 6t-6.5 16v41q0 9 6.5 15.5t15.5 6.5h41q10 0 16.5 -6.5t6.5 -15.5v-41q0 -10 -6.5 -16t-16.5 -6v0zM782 337l234 -192
q4 -3 6 -6.5t2 -8.5q1 -4 -0.5 -8t-4.5 -7l-129 -154l-1 -1l-1 -1q-12 -11 -28 -17t-36 -6q-41 0 -98 23.5t-123.5 66t-139 102t-145.5 131.5q-78 79 -146 164.5t-112 163.5t-56.5 141t19.5 96q1 0 1.5 1l0.5 1l153 129q3 3 7 4.5t9 0.5q4 0 7.5 -2t6.5 -5l193 -235
q4 -6 4.5 -13t-4.5 -13l-96 -135l316 -316l135 97q6 4 13 3.5t13 -4.5v0zM631 196q-6 -4 -14 -3.5t-13 5.5l-342 342q-5 5 -5.5 13t3.5 14l97 136l-168 206l-135 -115q-18 -20 -7.5 -68t48.5 -116t102 -150.5t152 -169.5q76 -77 148.5 -135t135 -97.5t112 -59t79.5 -19.5
q12 0 20 2.5t14 7.5l115 136l-206 168l-136 -97v0zM660 534h-40q-9 0 -16 6.5t-7 15.5v40q0 10 7 16.5t16 6.5h40q9 0 16 -6.5t7 -16.5v-40q0 -9 -7 -15.5t-16 -6.5v0z" />
    <glyph glyph-name="uniE843" unicode="&#xe843;" 
d="M1018 924l-304 -304h162q9 0 14.5 -7t5.5 -15q0 -9 -5.5 -15t-14.5 -6h-210q-1 0 -2.5 -0.5t-2.5 -0.5q-4 0 -8 1.5t-7 4.5q-4 5 -5.5 11t0.5 12v207q0 9 5.5 14.5t14.5 5.5t16 -5.5t7 -14.5v-162l303 304q7 6 15.5 6t15.5 -6q6 -6 6 -15t-6 -15v0zM755 338q6 4 13.5 3.5
t12.5 -4.5l235 -192q3 -3 5 -6.5t3 -8.5q0 -4 -1 -8t-4 -7l-130 -154l-0.5 -0.5t-0.5 -1.5q-12 -11 -28 -17t-36 -6q-41 0 -98 23.5t-123.5 66t-139 102t-145.5 132.5q-78 78 -146 163.5t-112 163.5t-57 141t20 96l1 0.5t1 1.5l153 129q3 3 7 4t8 1q5 0 8.5 -2t6.5 -6
l192 -234q5 -6 5 -13t-4 -13l-96 -135l316 -316l134 97v0zM603 198l-341 342q-5 5 -6 13t4 14l97 136l-168 206l-135 -115q-18 -20 -7.5 -68t48.5 -116t102 -150.5t151 -169.5q77 -77 149 -135t134.5 -97t112 -59t80.5 -20q11 0 19.5 2.5t13.5 7.5l115 137l-205 167
l-136 -97q-6 -4 -14 -3.5t-14 5.5v0z" />
    <glyph glyph-name="uniE844" unicode="&#xe844;" horiz-adv-x="1025" 
d="M1020 115l-129 -154l-1 -1l-1 -1q-12 -11 -27.5 -17t-36.5 -6q-41 0 -98 23.5t-123.5 66t-139.5 102t-145 132.5q-78 78 -146.5 163.5t-112.5 163.5t-56.5 141t19.5 96q1 0 1.5 0.5t0.5 1.5l153 129q3 3 7 4t9 1q4 0 8 -2t6 -6l193 -234q5 -6 5 -13t-4 -13l-96 -135
l316 -316l135 97q6 4 13 3.5t13 -4.5l235 -192q3 -3 5 -6.5t2 -8.5q1 -4 -0.5 -8t-4.5 -7v0zM768 293l-136 -97q-6 -4 -14 -3.5t-14 6.5l-341 341q-6 5 -6.5 13t3.5 14l98 136l-169 206l-135 -115q-18 -20 -7 -68.5t49 -116t101.5 -150t151.5 -169.5q77 -77 149 -135
t134.5 -97t112.5 -59t80 -20q12 0 20 2.5t14 7.5l115 137l-206 167v0zM981 589v0l-1 -1q0 -1 -1 -2.5t-2 -3.5l-86 -85q-3 -3 -7 -4.5t-8 -1.5t-8 1.5t-7 4.5q-6 6 -6 15t6 15l50 50h-291q-9 0 -15.5 6.5t-6.5 15.5q0 8 6.5 14.5t15.5 6.5h289l-48 48q-6 6 -6 15t6 15t15 6
t15 -6l83 -83q4 -3 6.5 -7.5t2.5 -9.5v-1v0q0 -2 -0.5 -4t-1.5 -4v0zM962 834h-292l50 -51q6 -6 6 -15t-6 -15q-3 -3 -7 -4.5t-8 -1.5t-8 1.5t-7 4.5l-86 85q-3 4 -4.5 7.5t-1.5 7.5v0v1v0v0q0 2 0.5 4t1.5 4q1 3 3 5l4 4l83 83q6 6 15 6t15 -6t6 -15t-6 -15l-47 -48h289
q9 0 15 -7t6 -15q0 -9 -6 -14.5t-15 -5.5v0z" />
    <glyph glyph-name="uniE845" unicode="&#xe845;" horiz-adv-x="1035" 
d="M1029 924l-992 -981q-4 -4 -8 -5.5t-8 -1.5t-8 1.5t-7 5.5q-6 6 -6 14.5t6 15.5l300 297q-16 18 -45 50.5t-31 35.5q-59 67 -109.5 138t-81.5 135t-37.5 115.5t21.5 79.5q1 0 1.5 0.5t0.5 1.5l154 129q4 3 8 4t8 1q5 0 8.5 -2t6.5 -6l195 -234q4 -6 4.5 -13t-3.5 -13
l-98 -135l145 -143l545 540q7 6 15.5 6t15.5 -6q6 -6 6 -15t-6 -15v0zM265 540q-6 5 -6.5 13t4.5 14l98 136l-170 206l-137 -115v0v-1q-15 -14 -9.5 -51t31.5 -91.5t72.5 -122.5t113.5 -144q2 -2 30 -33.5t45 -50.5l85 84l-157 156v0zM425 207q77 -68 150 -116.5t132 -76.5
t101 -34.5t59 9.5l116 137l-208 167l-137 -97q-7 -4 -14.5 -3.5t-13.5 5.5l-86 85q-7 6 -7 15t7 15q6 6 15 6.5t15 -6.5l73 -72l137 97q6 4 13 3.5t13 -4.5l237 -192q3 -3 5.5 -6.5t2.5 -8.5q0 -4 -1 -8t-4 -7l-131 -154l-1 -1l-1 -1q-12 -12 -28.5 -17.5t-37.5 -5.5
q-40 0 -92 19t-110 52t-118 76.5t-115 91.5q-6 6 -6.5 15t5.5 15q5 7 14 7.5t16 -5.5v0z" />
    <glyph glyph-name="uniE846" unicode="&#xe846;" 
d="M1018 954v0v-1q1 -1 2 -2.5t2 -3.5t1.5 -4t0.5 -4v-213q0 -9 -6.5 -15.5t-15.5 -6.5q-8 0 -13.5 7t-5.5 16v162l-307 -307q-3 -3 -7 -4.5t-8 -1.5t-8 1.5t-7 4.5q-6 7 -6 15.5t6 15.5l307 306h-162q-9 0 -16 5.5t-7 14.5t6 15t15 6h213q3 0 5 -0.5t4 -0.5q1 -1 2.5 -2
t3.5 -2v-1h1v0zM755 338q6 4 13.5 3.5t12.5 -4.5l235 -192q3 -3 5 -6.5t3 -8.5q0 -4 -1 -8t-4 -7l-130 -154l-0.5 -0.5t-0.5 -1.5q-12 -11 -28 -17t-36 -6q-41 0 -98 23.5t-123.5 66t-139 102t-145.5 132.5q-78 78 -146 163.5t-112 163.5t-57 141t20 96l1 0.5t1 1.5l153 129
q3 3 7 4t8 1q5 0 8.5 -2t6.5 -6l192 -234q5 -6 5 -13t-4 -13l-96 -135l316 -316l134 97v0zM603 198l-341 342q-5 5 -6 13t4 14l97 136l-168 206l-135 -115q-18 -20 -7.5 -68t48.5 -116t102 -150.5t151 -169.5q77 -77 149.5 -135t134.5 -97t111.5 -59t80.5 -20q11 0 19.5 2.5
t13.5 7.5l115 137l-205 167l-136 -97q-6 -4 -14 -3.5t-14 5.5v0z" />
    <glyph glyph-name="uniE847" unicode="&#xe847;" horiz-adv-x="1023" 
d="M1002 533q-9 0 -15 6.5t-6 15.5q0 74 -28.5 140t-78 115.5t-115.5 78t-141 28.5q-8 0 -14.5 6.5t-6.5 14.5q0 9 6.5 15.5t14.5 6.5q84 0 158 -32t129 -87t87 -129t32 -157q0 -9 -6.5 -15.5t-15.5 -6.5v0zM853 533q0 -9 -6.5 -15t-14.5 -6q-9 0 -15.5 6t-6.5 15
q0 49 -18.5 91.5t-50 74.5t-74.5 50.5t-91 18.5q-9 0 -15.5 6t-6.5 15t6.5 15t15.5 6q57 0 107.5 -21.5t88 -59.5t59.5 -88.5t22 -107.5v0zM305 557l316 -316l134 96q6 4 13.5 4t12.5 -5l235 -191q3 -3 5 -7t2 -8q1 -4 -0.5 -8t-3.5 -8l-130 -153l-0.5 -1t-1.5 -1
q-11 -11 -27 -17t-36 -6q-41 0 -98 23.5t-123.5 66t-139 102t-145.5 131.5q-78 78 -146 163.5t-112 164t-56.5 141t19.5 95.5l1.5 1.5l0.5 0.5l153 130q3 2 7 3.5t8 1.5q5 -1 8.5 -3t6.5 -5l192 -235q5 -5 5 -12.5t-4 -13.5l-96 -134v0zM189 908l-135 -115
q-18 -19 -7.5 -67.5t48.5 -116t102 -150t151 -170.5q77 -76 149 -134t134.5 -97.5t112 -59t80.5 -19.5q11 0 19.5 2.5t13.5 7.5l115 136l-205 168l-136 -97q-7 -5 -14.5 -4t-13.5 6l-341 341q-5 6 -6 14t4 14l97 136l-168 205v0z" />
    <glyph glyph-name="uniE848" unicode="&#xe848;" 
d="M875 160q7 -68 32.5 -106.5t25.5 -39.5q4 -4 5 -10.5t-1 -12.5q-3 -5 -8 -8.5t-12 -3.5v0v0q-4 0 -80.5 14.5t-142.5 92.5h-75q-68 0 -130 17t-116 50q-7 5 -9 13.5t2 16.5q5 7 13.5 9t16.5 -2q48 -30 104.5 -45.5t118.5 -15.5h85q5 0 9.5 -2.5t7.5 -5.5
q35 -45 77.5 -65.5t73.5 -27.5q-13 24 -25.5 59.5t-15.5 82.5q0 6 2.5 11.5t8.5 8.5q67 40 103 98.5t36 127.5q0 39 -27.5 91t-72.5 97q-6 6 -6 15t6 15t15 6t15 -6q52 -51 82.5 -110.5t30.5 -107.5q0 -78 -38.5 -144t-110.5 -112v0zM405 257h-75q-66 -79 -142.5 -93.5
t-80.5 -14.5v0v0q-7 0 -12 3.5t-8 9.5q-2 6 -1 12t5 11l25.5 38.5t32.5 107.5q-72 45 -110.5 111t-38.5 145q0 68 32 128.5t87 105t129 70.5t157 26q84 0 158 -26t129 -70.5t87 -105t32 -128.5t-32 -128.5t-87 -105t-129 -70.5t-158 -26v0zM405 875q-75 0 -141 -23t-115 -62
t-77.5 -91.5t-28.5 -111.5q0 -70 36 -128.5t103 -98.5q6 -3 8.5 -8t2.5 -11q-3 -47 -15.5 -83t-25.5 -60q31 8 73.5 28.5t77.5 64.5q3 4 7.5 6t9.5 2h85q75 0 141 23t115.5 62t78 91t28.5 112q0 59 -28.5 111.5t-78 91.5t-115.5 62t-141 23v0z" />
    <glyph glyph-name="uniE849" unicode="&#xe849;" 
d="M969 448h-73v-149q0 -7 -3.5 -12.5t-9.5 -7.5q-2 -1 -4 -1.5t-4 -0.5q-4 0 -8 2t-7 5l-165 164h-256q-23 0 -39 16t-16 39v402q0 23 16 39t39 16h530q23 0 39 -16t16 -39v-402q0 -23 -16 -39t-39 -16v0zM981 905q0 5 -3.5 8.5t-8.5 3.5h-530q-5 0 -8.5 -3.5t-3.5 -8.5
v-402q0 -5 3.5 -8.5t8.5 -3.5h265q2 0 4 -0.5t4 -1.5l4 -2t3 -3l134 -134v119q0 9 6.5 15.5t15.5 6.5h94q5 0 8.5 3.5t3.5 8.5v402v0zM320 149h265q5 0 8.5 4t3.5 9v179q0 9 6.5 15.5t15.5 6.5q8 0 14.5 -6.5t6.5 -15.5v-179q0 -23 -16 -39t-39 -16h-256l-165 -165
q-3 -3 -7 -4.5t-8 -1.5q-2 0 -4 0.5t-4 1.5q-6 2 -9.5 7.5t-3.5 11.5v150h-73q-23 0 -39 16t-16 39v402q0 22 16 38.5t39 16.5h223q8 0 14.5 -6.5t6.5 -15.5t-6.5 -15t-14.5 -6h-223q-5 0 -8.5 -3.5t-3.5 -8.5v-402q0 -5 3.5 -9t8.5 -4h94q9 0 15.5 -6t6.5 -15v-119l134 134
q1 2 3 3l4 2t4 1h4v0z" />
    <glyph glyph-name="uniE84A" unicode="&#xe84a;" 
d="M1009 -63q-2 -1 -3.5 -1h-2.5q-6 0 -10.5 2.5t-7.5 6.5l-109 162h-492q-37 0 -61 25.5t-24 62.5v125q0 9 6 15t15 6t15 -6t6 -15v-125q0 -19 14 -33t33 -14h500h1.5h0.5h2t2 -1q1 0 2 -0.5t2 -0.5q1 -1 2 -1.5l1 -0.5l2 -2t1 -2h1.5t0.5 -1l75 -112v524q0 19 -13.5 32.5
t-32.5 13.5h-103q-9 0 -15 6.5t-6 15.5q0 8 6 14.5t15 6.5h103q37 0 63 -26t26 -63v-594q0 -7 -4 -12.5t-11 -7.5v0zM640 427h-492l-109 -162q-3 -4 -7.5 -6.5t-10.5 -2.5h-2.5t-3.5 1q-7 2 -11 7.5t-4 12.5v594q0 37 26 63t63 26h547q37 0 63 -26t26 -63v-356
q0 -37 -24 -62.5t-61 -25.5v0zM683 871q0 19 -14 32.5t-33 13.5h-547q-19 0 -32.5 -13.5t-13.5 -32.5v-524l75 112q0 1 0.5 1h1.5q0 1 1 2l2 2l1 0.5t2 1.5q1 0 2 0.5t2 0.5q1 1 2 1h2h0.5h1.5h500q19 0 33 14t14 33v356v0z" />
    <glyph glyph-name="uniE84B" unicode="&#xe84b;" 
d="M512 128h-53.5h-41.5q-26 -44 -63.5 -69.5t-72 -38.5t-60 -16.5t-28.5 -3.5h-0.5h-0.5q-6 0 -11 3t-8 8q-3 6 -2.5 12t4.5 11q0 1 27.5 49.5t31.5 116.5q-57 29 -100.5 64.5t-73 75t-45 83t-15.5 89.5q0 80 40.5 149.5t110 122t162.5 82.5t199 30t199 -30t162.5 -82.5
t110 -122t40.5 -149.5q0 -79 -40.5 -149t-110 -122t-162.5 -82.5t-199 -30.5v0zM512 853q-97 0 -182.5 -26.5t-149 -73t-100.5 -108.5t-37 -133q0 -55 23 -100t57 -80t72.5 -60t69.5 -41q1 0 1.5 -0.5l1.5 -1.5q1 0 1.5 -0.5l1.5 -1.5t1.5 -2t1.5 -2q0 -1 0.5 -1.5t0.5 -1.5
q1 -1 1 -2.5v-2.5q1 -1 1 -1.5v-1.5v0v-1v0v0q0 -49 -14.5 -91t-28.5 -70q34 8 80 32.5t72 76.5l1.5 1.5t0.5 1.5l1.5 1.5l1.5 1.5t2 1.5t2 1.5q1 0 1.5 0.5t1.5 0.5q1 1 2.5 1h2.5t1.5 0.5t1.5 0.5h8h36h62q97 0 182.5 27t149 73.5t100.5 108.5t37 132q0 71 -37 133
t-100.5 108.5t-149 73t-182.5 26.5v0zM703 528l-39 -148q-3 -16 -16 -27.5t-29 -11.5h-105q-12 0 -26.5 5t-24.5 13l-42 25h-16q0 -9 -6 -15t-15 -6t-15 6t-6 15v192q0 9 6 15t15 6t15 -6t6 -15h27q7 20 17.5 52.5t12.5 39.5q5 16 19.5 26t31.5 10q21 0 42 -19t21 -45v-0.5
v-0.5v-1.5v-0.5v-61h87q9 0 17 -3.5t14 -9.5q6 -7 8.5 -15t1.5 -17q0 -1 -0.5 -1.5t-0.5 -1.5v0zM556 533h-0.5h-0.5v0v0q-9 0 -15.5 6.5t-6.5 15.5v82l0.5 0.5t0.5 1.5l-0.5 0.5l-0.5 0.5q0 7 -7.5 14t-12.5 7q-4 0 -7 -2t-3 -4q-3 -9 -19 -58l-16 -49q-2 -6 -7.5 -10.5
t-12.5 -4.5h-43v-106h22q3 0 5.5 -1t5.5 -2l48 -29l1.5 -1.5t1.5 -0.5q4 -3 12 -6t13 -3h105q1 0 2 1l1 1v2v2l38 143h-104v0z" />
    <glyph glyph-name="uniE84C" unicode="&#xe84c;" 
d="M512 128h-53.5h-41.5q-26 -44 -63.5 -69.5t-72 -38.5t-60 -16.5t-28.5 -3.5h-0.5h-0.5q-6 0 -11 3t-8 8q-3 6 -2.5 12t4.5 11q0 1 27.5 49.5t31.5 116.5q-57 29 -100.5 64.5t-73 75t-45 83t-15.5 89.5q0 80 40.5 149.5t110 122t162.5 82.5t199 30t199 -30t162.5 -82.5
t110 -122t40.5 -149.5q0 -79 -40.5 -149t-110 -122t-162.5 -82.5t-199 -30.5v0zM512 853q-97 0 -182.5 -26.5t-149 -73t-100.5 -108.5t-37 -133q0 -55 23 -100t57 -80t72.5 -60t69.5 -41q1 0 1.5 -0.5l1.5 -1.5q1 0 1.5 -0.5l1.5 -1.5t1.5 -2t1.5 -2q0 -1 0.5 -1.5t0.5 -1.5
q1 -1 1 -2.5v-2.5q1 -1 1 -1.5v-1.5v0v-1v0v0q0 -49 -14.5 -91t-28.5 -70q34 8 80 32.5t72 76.5q1 2 2 3l2 2l0.5 0.5l0.5 0.5q1 1 2.5 2t3.5 2v0h1q1 1 2.5 1h2.5t1.5 0.5t1.5 0.5h8h36h62q97 0 182.5 27t149 73.5t100.5 108.5t37 132q0 71 -37 133t-100.5 108.5t-149 73
t-182.5 26.5v0zM747 469q0 -8 -6.5 -14.5t-15.5 -6.5h-128q-6 0 -11 3t-8 9q-2 5 -1.5 11t3.5 11l103 137h-86q-8 0 -14.5 6t-6.5 15t6.5 15t14.5 6h128q6 0 11.5 -3t7.5 -8q3 -6 2.5 -12t-4.5 -11l-102 -136h85q9 0 15.5 -6.5t6.5 -15.5v0zM491 341h-171q-6 0 -11 3t-8 8
q-2 5 -2 11t3 11l150 245h-132q-9 0 -15 6t-6 15t6 15t15 6h170q6 0 11 -2.5t7 -8.5q3 -5 3 -10.5t-3 -10.5l-150 -245h133q8 0 14.5 -6.5t6.5 -14.5q0 -9 -6.5 -15.5t-14.5 -6.5v0z" />
    <glyph glyph-name="uniE84D" unicode="&#xe84d;" 
d="M512 128h-53.5h-41.5q-26 -44 -63.5 -69.5t-72 -38.5t-60 -16.5t-28.5 -3.5h-0.5h-0.5q-6 0 -11 3t-8 8q-3 6 -2.5 12t4.5 11q0 1 27.5 49.5t31.5 116.5q-57 29 -100.5 64.5t-73 75t-45 83t-15.5 89.5q0 80 40.5 149.5t110 122t162.5 82.5t199 30t199 -30t162.5 -82.5
t110 -122t40.5 -149.5q0 -79 -40.5 -149t-110 -122t-162.5 -82.5t-199 -30.5v0zM512 853q-97 0 -182.5 -26.5t-149 -73t-100.5 -108.5t-37 -133q0 -55 23 -100t57 -80t72.5 -60t69.5 -41q1 0 1.5 -0.5l1.5 -1.5q1 0 1.5 -0.5l1.5 -1.5t1.5 -2t1.5 -2q0 -1 0.5 -1.5t0.5 -1.5
q1 -1 1 -2.5v-2.5q1 -1 1 -1.5v-1.5v0v-1v0v0q0 -49 -14.5 -91t-28.5 -70q34 8 80 32.5t72 76.5q1 2 2 3l3 3v0v0q2 2 5.5 3.5t7.5 1.5l0.5 0.5t1.5 0.5h8h36h62q97 0 182.5 27t149 73.5t100.5 108.5t37 132q0 71 -37 133t-100.5 108.5t-149 73t-182.5 26.5v0zM768 491h-512
q-9 0 -15 6t-6 15t6 15t15 6h512q9 0 15 -6t6 -15t-6 -15t-15 -6v0zM768 619h-512q-9 0 -15 6t-6 15t6 15t15 6h512q9 0 15 -6t6 -15t-6 -15t-15 -6v0zM256 405h299q8 0 14.5 -6t6.5 -15t-6.5 -15t-14.5 -6h-299q-9 0 -15 6t-6 15t6 15t15 6v0z" />
    <glyph glyph-name="uniE84E" unicode="&#xe84e;" 
d="M960 192h-566l-164 -205q-3 -4 -7.5 -6t-9.5 -2h-3t-4 1q-6 2 -10 7.5t-4 12.5v192h-128q-26 0 -45 19t-19 45v597q0 27 19 45.5t45 18.5h896q26 0 45 -18.5t19 -45.5v-597q0 -26 -19 -45t-45 -19v0zM981 853q0 9 -6 15.5t-15 6.5h-896q-9 0 -15 -6.5t-6 -15.5v-597
q0 -9 6 -15t15 -6h149q9 0 15.5 -6.5t6.5 -15.5v-152l132 166h1v0l2 2t2 1q0 1 1 1.5t2 0.5q1 1 2 1t1 1h3h2l0.5 0.5l0.5 0.5h576q9 0 15 6t6 15v597v0zM704 619h-47l-32 -128h36q9 0 15.5 -6.5t6.5 -15.5q0 -8 -6.5 -14.5t-15.5 -6.5h-47l-17 -69q-2 -7 -8 -11.5t-13 -4.5
h-2.5h-2.5q-9 2 -13.5 10t-2.5 16l15 59h-148l-17 -69q-2 -7 -8 -11.5t-13 -4.5h-2.5h-2.5q-9 2 -13.5 10t-2.5 16l15 59h-37q-8 0 -14.5 6.5t-6.5 14.5q0 9 6.5 15.5t14.5 6.5h48l32 128h-37q-9 0 -15 6t-6 15t6 15t15 6h47l18 70q2 8 9.5 12.5t16.5 2.5q8 -2 12.5 -9.5
t2.5 -16.5l-15 -59h148l18 70q2 8 9.5 12.5t16.5 2.5q8 -2 12.5 -9.5t2.5 -16.5l-15 -59h37q9 0 15 -6t6 -15t-6 -15t-15 -6v0zM465 619l-32 -128h148l32 128h-148v0z" />
    <glyph glyph-name="uniE84F" unicode="&#xe84f;" 
d="M960 192h-566l-164 -205q-3 -4 -7.5 -6t-9.5 -2h-3t-4 1q-6 2 -10 7.5t-4 12.5v192h-128q-26 0 -45 19t-19 45v597q0 27 19 45.5t45 18.5h896q26 0 45 -18.5t19 -45.5v-597q0 -26 -19 -45t-45 -19v0zM981 853q0 9 -6 15.5t-15 6.5h-896q-9 0 -15 -6.5t-6 -15.5v-597
q0 -9 6 -15t15 -6h149q9 0 15.5 -6.5t6.5 -15.5v-152l132 166h1v0l2 2t2 1q0 1 1 1.5t2 0.5q1 1 2 1t1 1h3h2l0.5 0.5l0.5 0.5h576q9 0 15 6t6 15v597v0zM597 384q-8 0 -14.5 6.5t-6.5 14.5q0 9 6 15.5t15 6.5q6 0 38 12t44 73h-103q-9 0 -15 6.5t-6 14.5v171q0 9 6 15t15 6
h128q9 0 15 -6t6 -15v-171v-3t-1 -3q-10 -106 -68 -124.5t-59 -18.5v0zM683 683h-86v-128h86v128v0zM341 384q-8 0 -14.5 6.5t-6.5 14.5q0 9 6 15.5t15 6.5q6 0 38 12t44 73h-103q-9 0 -15 6.5t-6 14.5v171q0 9 6 15t15 6h128q9 0 15 -6t6 -15v-171v-3t-1 -3
q-10 -106 -68 -124.5t-59 -18.5v0zM427 683h-86v-128h86v128v0z" />
    <glyph glyph-name="uniE850" unicode="&#xe850;" 
d="M960 192h-566l-164 -205q-3 -4 -7.5 -6t-9.5 -2h-3t-4 1q-6 2 -10 7.5t-4 12.5v192h-128q-26 0 -45 19t-19 45v597q0 27 19 45.5t45 18.5h896q26 0 45 -18.5t19 -45.5v-597q0 -26 -19 -45t-45 -19v0zM981 853q0 9 -6 15.5t-15 6.5h-896q-9 0 -15 -6.5t-6 -15.5v-597
q0 -9 6 -15t15 -6h149q9 0 15.5 -6.5t6.5 -15.5v-152l132 166h1v0l2 2t2 1q0 1 1 1.5t2 0.5q1 1 2 1t1 1h3h2l0.5 0.5l0.5 0.5h576q9 0 15 6t6 15v597v0zM512 405q-120 0 -174.5 57t-57.5 60q-4 8 -2 16.5t10 13.5q7 4 15.5 2t13.5 -10q2 -3 48 -49.5t147 -46.5
q102 0 148.5 48l46.5 48q5 8 13.5 10t15.5 -2q8 -5 10 -13.5t-2 -16.5q-3 -3 -57.5 -60t-174.5 -57v0zM619 619q-18 0 -30.5 12.5t-12.5 29.5q0 18 12.5 30.5t30.5 12.5q17 0 29.5 -12.5t12.5 -30.5q0 -17 -12.5 -29.5t-29.5 -12.5v0zM405 619q-17 0 -29.5 12.5t-12.5 29.5
q0 18 12.5 30.5t29.5 12.5q18 0 30.5 -12.5t12.5 -30.5q0 -17 -12.5 -29.5t-30.5 -12.5v0z" />
    <glyph glyph-name="uniE851" unicode="&#xe851;" 
d="M960 192h-566l-164 -205q-3 -4 -7.5 -6t-9.5 -2h-3t-4 1q-6 2 -10 7.5t-4 12.5v192h-128q-26 0 -45 19t-19 45v597q0 27 19 45.5t45 18.5h896q26 0 45 -18.5t19 -45.5v-597q0 -26 -19 -45t-45 -19v0zM981 853q0 9 -6 15.5t-15 6.5h-896q-9 0 -15 -6.5t-6 -15.5v-597
q0 -9 6 -15t15 -6h149q9 0 15.5 -6.5t6.5 -15.5v-152l132 166h1v0l2 2t2 1q0 1 1 1.5t2 0.5q1 1 2 1t1 1h3h2l0.5 0.5l0.5 0.5h576q9 0 15 6t6 15v597v0zM768 320h-277q-9 0 -15.5 6t-6.5 15t6.5 15.5t15.5 6.5h277q9 0 15 -6.5t6 -15.5t-6 -15t-15 -6v0zM699 644
q0 -1 -0.5 -1.5l-0.5 -0.5l-262 -262v0v0q-1 -1 -1.5 -1t-1.5 -1t-2 -1.5t-2 -1.5h-1v0l-143 -54q-2 0 -4 -0.5t-4 -0.5q-4 0 -8 1.5t-7 4.5q-4 5 -5.5 11t0.5 12l54 143v0.5v0.5q1 0 1.5 1t0.5 2q1 1 1.5 2t1.5 2v0v0l262 262q1 0 1 0.5t1 0.5v0.5t1 0.5q24 25 60 25
t60 -25q12 -12 18 -27t6 -32t-6.5 -32.5t-18.5 -27.5q0 -1 -0.5 -1h-0.5v0zM670 734q-12 12 -29.5 12t-29.5 -12h-0.5t-1.5 -1v-0.5t-1 -0.5l-258 -259l-36 -95l95 36l259 258q0 1 0.5 1h0.5q1 1 1 1.5v0.5q6 6 9.5 13.5t3.5 16.5q0 8 -3.5 15.5t-9.5 13.5v0z" />
    <glyph glyph-name="uniE852" unicode="&#xe852;" 
d="M960 192h-566l-164 -205q-3 -4 -7.5 -6t-9.5 -2h-3t-4 1q-6 2 -10 7.5t-4 12.5v192h-128q-26 0 -45 19t-19 45v597q0 27 19 45.5t45 18.5h896q26 0 45 -18.5t19 -45.5v-597q0 -26 -19 -45t-45 -19v0zM981 853q0 9 -6 15.5t-15 6.5h-896q-9 0 -15 -6.5t-6 -15.5v-597
q0 -9 6 -15t15 -6h149q9 0 15.5 -6.5t6.5 -15.5v-152l132 166h1v0l2 2t2 1q0 1 1 1.5t2 0.5q1 1 2 1t1 1h3h2l0.5 0.5l0.5 0.5h576q9 0 15 6t6 15v597v0zM811 533h-598q-9 0 -15 6.5t-6 15.5t6 15t15 6h598q9 0 15 -6t6 -15t-6 -15.5t-15 -6.5v0zM811 661h-598q-9 0 -15 6.5
t-6 15.5t6 15t15 6h598q9 0 15 -6t6 -15t-6 -15.5t-15 -6.5v0zM213 448h384q9 0 15.5 -6t6.5 -15t-6.5 -15.5t-15.5 -6.5h-384q-9 0 -15 6.5t-6 15.5t6 15t15 6v0z" />
    <glyph glyph-name="uniE853" unicode="&#xe853;" 
d="M896 192h-694l-164 -205q-3 -4 -7.5 -6t-9.5 -2h-3t-4 1q-6 2 -10 7.5t-4 12.5v790q0 52 37.5 89.5t90.5 37.5h768q53 0 90.5 -37.5t37.5 -89.5v-470q0 -53 -37.5 -90.5t-90.5 -37.5v0zM981 790q0 35 -25 60t-60 25h-768q-35 0 -60 -25t-25 -60v-729l132 166h1v0l2 2t2 1
q0 1 1 1.5t2 0.5q1 1 2 1t2 1h2h2l0.5 0.5l0.5 0.5h704q35 0 60 25t25 60v470v0zM811 533h-598q-8 0 -14.5 6.5t-6.5 15.5t6.5 15t14.5 6h598q8 0 14.5 -6t6.5 -15t-6.5 -15.5t-14.5 -6.5v0zM811 661h-598q-8 0 -14.5 6.5t-6.5 15.5t6.5 15t14.5 6h598q8 0 14.5 -6t6.5 -15
t-6.5 -15.5t-14.5 -6.5v0zM213 448h384q9 0 15.5 -6t6.5 -15t-6.5 -15.5t-15.5 -6.5h-384q-8 0 -14.5 6.5t-6.5 15.5t6.5 15t14.5 6v0z" />
    <glyph glyph-name="uniE854" unicode="&#xe854;" 
d="M875 160q7 -68 32.5 -106.5t25.5 -39.5q4 -4 5 -10.5t-1 -12.5q-3 -5 -8 -8.5t-12 -3.5v0v0q-4 0 -80.5 14.5t-142.5 92.5h-75q-68 0 -130 17t-116 50q-7 5 -9 13.5t2 16.5q5 7 13.5 9t16.5 -2q48 -30 104.5 -45.5t118.5 -15.5h85q5 0 9.5 -2.5t7.5 -5.5
q35 -45 77.5 -65.5t73.5 -27.5q-13 24 -25.5 59.5t-15.5 82.5q0 6 2.5 11.5t8.5 8.5q67 40 103 98.5t36 127.5q0 39 -27.5 91t-72.5 97q-6 6 -6 15t6 15t15 6t15 -6q52 -51 82.5 -110.5t30.5 -107.5q0 -78 -38.5 -144t-110.5 -112v0zM405 257v0v0h-75q-66 -79 -142.5 -93.5
t-80.5 -14.5v0v0q-7 0 -12 3.5t-8 9.5q-2 6 -1 12t5 11l25.5 38.5t32.5 107.5q-72 45 -110.5 111t-38.5 145q0 68 32 128.5t87 105t129 70.5t157 26q84 0 158 -26t129 -70.5t87 -105t32 -128.5t-32 -128.5t-87 -105t-129 -70.5t-158 -26v0zM405 875q-75 0 -141 -23t-115 -62
t-77.5 -91.5t-28.5 -111.5q0 -70 36 -128.5t103 -98.5q6 -3 8.5 -8t2.5 -11q-3 -47 -15.5 -83t-25.5 -60q31 8 73.5 28.5t77.5 64.5q3 4 7.5 6t9.5 2h85q75 0 141 22.5t115.5 62t78 91.5t28.5 112q0 59 -28.5 111.5t-78 91.5t-115.5 62t-141 23v0zM595 619h-384
q-9 0 -15.5 6t-6.5 15t6.5 15t15.5 6h384q8 0 14.5 -6t6.5 -15t-6.5 -15t-14.5 -6v0zM211 533h298q9 0 15.5 -6t6.5 -15t-6.5 -15t-15.5 -6h-298q-9 0 -15.5 6t-6.5 15t6.5 15t15.5 6v0z" />
    <glyph glyph-name="uniE855" unicode="&#xe855;" 
d="M960 149h-149v-149q0 -6 -4 -11.5t-9 -8.5q-2 -1 -4.5 -1h-4.5q-4 0 -8 1.5t-7 4.5l-164 164h-183q-18 0 -30.5 12.5t-12.5 30.5v64q0 9 6 15t15 6t15.5 -6t6.5 -15v-64h192v0v0q2 0 4 -0.5t4 -1.5q2 0 3.5 -1.5t3.5 -2.5l134 -134v119q0 9 6 15t15 6h171q9 0 15 6.5
t6 14.5v384q0 9 -6 15.5t-15 6.5h-128q-9 0 -15 6t-6 15t6 15t15 6h128q26 0 45 -18.5t19 -45.5v-384q0 -26 -19 -45t-45 -19v0zM661 363h-290l-164 -165q-3 -3 -7 -4.5t-8 -1.5q-2 0 -4 0.5t-4 1.5q-6 2 -9.5 7.5t-3.5 11.5v150h-107q-26 0 -45 18.5t-19 45.5v426
q0 27 19 45.5t45 18.5h597q27 0 45.5 -18.5t18.5 -45.5v-426q0 -27 -18.5 -45.5t-45.5 -18.5v0zM683 853q0 9 -6.5 15.5t-15.5 6.5h-597q-9 0 -15 -6.5t-6 -15.5v-426q0 -9 6 -15.5t15 -6.5h128q9 0 15 -6t6 -15v-119l134 134q2 2 4 3l4 2q1 0 3 0.5t4 0.5v0h1h298
q9 0 15.5 6.5t6.5 15.5v426v0zM576 683h-427q-8 0 -14.5 6t-6.5 15t6.5 15t14.5 6h427q9 0 15 -6t6 -15t-6 -15t-15 -6v0zM149 597h299q9 0 15 -6t6 -15t-6 -15t-15 -6h-299q-8 0 -14.5 6t-6.5 15t6.5 15t14.5 6v0z" />
    <glyph glyph-name="uniE856" unicode="&#xe856;" 
d="M1009 -63q-2 -1 -3.5 -1h-2.5q-6 0 -10.5 2.5t-7.5 6.5l-109 162h-492q-37 0 -61 25.5t-24 62.5v125q0 9 6 15t15 6t15 -6t6 -15v-125q0 -19 14 -33t33 -14h500h1.5h0.5h2t2 -1q1 0 2 -0.5t2 -0.5q1 -1 2 -1.5t1 -1.5q1 0 2 -1t1 -2h1.5t0.5 -1l75 -112v524
q0 19 -13.5 32.5t-32.5 13.5h-103q-9 0 -15 6.5t-6 15.5q0 8 6 14.5t15 6.5h103q37 0 63 -26t26 -63v-594q0 -7 -4 -12.5t-11 -7.5v0zM640 427h-492l-109 -162q-3 -4 -7.5 -6.5t-10.5 -2.5h-2.5t-3.5 1q-7 2 -11 7.5t-4 12.5v594q0 37 26 63t63 26h547q37 0 63 -26t26 -63
v-356q0 -37 -24 -62.5t-61 -25.5v0zM683 871q0 19 -14 32.5t-33 13.5h-547q-19 0 -32.5 -13.5t-13.5 -32.5v-524l75 112l0.5 0.5t1.5 0.5q0 1 1 2l2 2l1 0.5t2 1.5q1 0 2 0.5t2 0.5q1 1 2 1h2h0.5h1.5h500q19 0 33 14t14 33v356v0zM576 725h-427q-8 0 -14.5 6.5t-6.5 15.5
t6.5 15t14.5 6h427q9 0 15 -6t6 -15t-6 -15.5t-15 -6.5v0zM149 661h299q9 0 15 -6t6 -15t-6 -15t-15 -6h-299q-8 0 -14.5 6t-6.5 15t6.5 15t14.5 6v0z" />
    <glyph glyph-name="uniE857" unicode="&#xe857;" 
d="M935 -64h-847q-35 0 -61.5 25t-26.5 60v491q0 3 1 5.5t3 5.5v0v0l1.5 1.5t0.5 1.5q1 0 1 0.5v1.5h0.5h0.5l1 1v1l148 128q7 6 15.5 5.5t14.5 -7.5t5 -15.5t-7 -14.5l-130 -113l279 -245l139 123q16 14 38.5 14t38.5 -14l138 -123l280 245l-131 114q-6 5 -6.5 14t4.5 16
q6 6 15 7t15 -5l149 -129v-1l1 -1h0.5t0.5 -1v0v0q4 -3 6 -6.5t2 -8.5v-491q0 -35 -27 -60t-62 -25v0zM43 468v-447q0 -3 0.5 -5.5t1.5 -5.5l257 229l-259 229v0zM522 359q-4 4 -10.5 4t-10.5 -4l-425 -378q3 -1 6 -1.5t6 -0.5h847q3 0 6 0.5t7 1.5l-426 378v0zM981 469
l-261 -229l259 -231q1 3 1.5 6t0.5 6v448v0zM636 540q-19 7 -29.5 22t-10.5 35v12q-16 -15 -38 -24t-46 -9q-53 0 -90.5 37.5t-37.5 90.5t37.5 90.5t90.5 37.5q24 0 46 -9t38 -24v12q0 9 6.5 15t15.5 6q8 0 14.5 -6t6.5 -15v-214q0 -6 3 -10.5t9 -6.5q11 -4 26 -0.5t23 12.5
q18 21 20.5 52.5t2.5 54.5v5q0 44 -16.5 83t-45.5 68t-67.5 45.5t-82.5 16.5t-82.5 -16.5t-67 -45.5t-45.5 -68t-17 -83t17 -83t45.5 -68t67 -45.5t82.5 -16.5q9 0 15.5 -6.5t6.5 -15.5q0 -8 -6.5 -14.5t-15.5 -6.5q-52 0 -98.5 20t-81 55t-54.5 81.5t-20 99.5t20 99.5
t54.5 81.5t81 55t98.5 20q53 0 99.5 -20t81 -55t54.5 -81.5t20 -99.5v-4q0 -27 -4 -66t-30 -69q-17 -20 -44.5 -27t-51.5 2v0zM512 789q-36 0 -60.5 -25t-24.5 -60t24.5 -60t60.5 -25q35 0 59.5 25t24.5 60t-24.5 60t-59.5 25v0z" />
    <glyph glyph-name="uniE858" unicode="&#xe858;" horiz-adv-x="1021" 
d="M935 -64h-848q-36 0 -61.5 25.5t-25.5 61.5v489v0.5v0.5q0 2 0.5 4.5t1.5 4.5l0.5 0.5t0.5 1.5q1 1 1.5 2t0.5 2h1l1 1v0.5t1 0.5l120 104v177q0 9 6 15t15 6h207l141 123q6 5 14 5t14 -5l141 -123h206q9 0 15.5 -6t6.5 -15v-177l120 -104l0.5 -0.5l0.5 -0.5q0 -1 0.5 -1
h0.5q1 -1 1.5 -2t0.5 -2q1 -1 1 -1.5t1 -0.5q0 -2 0.5 -4.5t0.5 -4.5v-0.5v-0.5v-489q0 -36 -25 -61.5t-61 -25.5v0zM87 -21h848q3 0 6 0.5t6 1.5l-426 379q-4 3 -10.5 3t-10.5 -4l-426 -378q3 -1 6 -1.5t7 -0.5v0zM43 23q0 -3 0.5 -6t0.5 -5l257 228l-258 227v-444v0z
M54 514l74 -65v129l-74 -64v0zM511 911l-90 -79h180l-90 79v0zM170 790v-379l163 -143l139 123q16 15 38.5 15t38.5 -14l139 -123l163 143v378h-681v0zM894 578v-129l74 65l-74 64v0zM979 467l-259 -227l257 -228q1 2 1.5 5t0.5 6v444v0z" />
    <glyph glyph-name="uniE859" unicode="&#xe859;" horiz-adv-x="1026" 
d="M1026 21q0 -35 -27 -60t-62 -25h-848q-36 0 -62.5 25t-26.5 60v492q0 4 2 7.5t5 6.5v0.5v0.5h1l1 1v0.5v0.5l490 425q6 5 14 5t14 -5l489 -425v-0.5t1 -0.5q0 -1 0.5 -1h0.5v-0.5v-0.5q4 -3 6 -6.5t2 -7.5v-492v0zM983 21v448l-261 -229l259 -230q1 2 1.5 5t0.5 6v0z
M89 -21h848q3 0 6 0.5t6 1.5l-426 379q-4 3 -10.5 3t-10.5 -4l-426 -378q3 -1 6 -1.5t7 -0.5v0zM43 21q0 -3 0.5 -5.5t1.5 -5.5l258 230l-260 228v-447v0zM513 911l-457 -397l279 -246l139 123q16 15 38.5 15t38.5 -14l139 -123l279 245l-456 397v0z" />
    <glyph glyph-name="uniE85A" unicode="&#xe85a;" 
d="M1017 -58q-3 -3 -7 -4.5t-8 -1.5t-8 1.5t-7 4.5l-102 103q-16 -11 -35 -17.5t-39 -6.5q-53 0 -90.5 38t-37.5 91q0 52 37.5 90t90.5 38t90 -38t37 -90q0 -21 -6 -40t-17 -34l102 -103q7 -7 7 -15.5t-7 -15.5v0zM811 235q-35 0 -60 -25t-25 -60q0 -36 25 -61t60 -25t60 25
t25 61q0 35 -25 60t-60 25v0zM875 363q-9 0 -15.5 6t-6.5 15v135l-218 -255v-0.5v-0.5v0v0q-1 -1 -2.5 -2t-3.5 -2l-0.5 -0.5l-0.5 -0.5q-2 -1 -4 -1.5t-4 -0.5h-1v0q-2 0 -3.5 0.5t-3.5 1.5h-0.5h-0.5l-3 1.5l-3 1.5v0.5v0.5v0v0l-147 141q-4 3 -10.5 3t-11.5 -4l-364 -316
h526q9 0 15 -6.5t6 -15.5t-6 -15t-15 -6h-532q-26 0 -46 19t-20 45v470q0 4 1.5 7t3.5 6h0.5t0.5 1q1 1 1.5 2t1.5 1q0 1 0.5 1h0.5l424 360q6 5 13.5 5t13.5 -5l427 -362v0v0v0v0l2 -2t1 -2h0.5t0.5 -1v0v0q1 -1 1.5 -2.5t1.5 -3.5v0v0v0v0q0 -1 0.5 -2.5t0.5 -2.5v0v-1
v-192q0 -9 -6.5 -15t-14.5 -6v0zM43 116l187 163l-187 241v-404v0zM448 911l-395 -335l209 -269l147 128q16 13 38.5 13t38.5 -14l132 -125l227 265l-397 337v0z" />
    <glyph glyph-name="uniE85B" unicode="&#xe85b;" 
d="M935 -64h-846q-36 0 -62.5 25t-26.5 60v491q0 5 2.5 9t6.5 7v0.5t1 1.5l148 128q6 6 15 5.5t14 -7.5q6 -7 5.5 -15.5t-7.5 -14.5l-129 -112l456 -282l455 282l-130 113q-6 5 -6.5 14t4.5 16q6 6 15 7t15 -5l149 -129v-1.5t1 -0.5q4 -3 6.5 -7t2.5 -9v-491q0 -35 -27 -60
t-62 -25v0zM981 472l-458 -283q-3 -2 -5.5 -2.5t-5.5 -0.5t-6 0.5t-5 2.5l-458 283v-451q0 -18 14 -30t32 -12h846q18 0 32 12t14 30v451v0zM636 540q-18 7 -28.5 22t-10.5 35v12q-17 -15 -39 -24t-46 -9q-53 0 -90.5 37.5t-37.5 90.5t37.5 90.5t90.5 37.5q24 0 46 -9
t39 -24v12q0 9 6 15t15 6t15 -6t6 -15v-214q0 -6 3 -10.5t9 -6.5q12 -4 26.5 -0.5t22.5 12.5q18 21 21 52.5t2 54.5v5q0 44 -16.5 83t-45 68t-67.5 45.5t-82 16.5q-44 0 -82.5 -16.5t-67.5 -45.5t-45.5 -68t-16.5 -83t16.5 -83t45.5 -68t67.5 -45.5t82.5 -16.5
q8 0 14.5 -6.5t6.5 -15.5q0 -8 -6.5 -14.5t-14.5 -6.5q-53 0 -99.5 20t-81 55t-54.5 81.5t-20 99.5t20 99.5t54.5 81.5t81 55t99.5 20q52 0 98.5 -20t81 -55t54.5 -81.5t20 -99.5v-4q0 -27 -4 -66t-30 -69q-17 -20 -44.5 -27t-51.5 2v0zM512 789q-35 0 -60 -25t-25 -60
t25 -60t60 -25t60 25t25 60t-25 60t-60 25v0z" />
    <glyph glyph-name="uniE85C" unicode="&#xe85c;" 
d="M1003 405q-9 0 -15.5 6.5t-6.5 15.5v298q0 10 -3 19.5t-8 17.5l-444 -373q-3 -3 -6.5 -4t-7.5 -1t-7.5 1t-6.5 4l-444 373q-5 -8 -8 -17.5t-3 -19.5v-469q0 -26 18.5 -45t45.5 -19h512q9 0 15 -6.5t6 -14.5q0 -9 -6 -15.5t-15 -6.5h-512q-44 0 -75.5 31.5t-31.5 75.5v469
q0 44 31.5 75.5t75.5 31.5h810q44 0 75.5 -31.5t31.5 -75.5v-298q0 -9 -6 -15.5t-15 -6.5v0zM917 789h-810q-5 0 -9 -0.5t-8 -1.5l422 -354l422 354q-4 1 -8 1.5t-9 0.5v0zM853 405q71 0 121 -50t50 -120q0 -71 -50 -121t-121 -50q-70 0 -120 50t-50 121q0 70 50 120t120 50
v0zM853 363q-20 0 -39 -6.5t-35 -17.5l178 -178q12 15 18 34t6 40q0 53 -37.5 90.5t-90.5 37.5v0zM853 107q21 0 40 6t34 18l-178 178q-11 -16 -17.5 -35t-6.5 -39q0 -53 37.5 -90.5t90.5 -37.5v0z" />
    <glyph glyph-name="uniE85D" unicode="&#xe85d;" 
d="M924 192l92 -92q6 -6 6 -14.5t-6 -15.5q-3 -3 -7 -4.5t-8 -1.5t-8 1.5t-7 4.5l-92 92l-91 -92q-3 -3 -7 -4.5t-8 -1.5t-8 1.5t-7 4.5q-7 7 -7 15.5t7 14.5l91 92l-91 92q-7 6 -7 15t7 15q6 6 14.5 6t15.5 -6l91 -92l92 92q6 6 14.5 6t15.5 -6q6 -6 6 -15t-6 -15l-92 -92
v0zM1001 405q-9 0 -14.5 6.5t-5.5 15.5v298q0 11 -3 20t-9 17l-444 -373q-3 -2 -6.5 -3.5t-7.5 -1.5t-7.5 1.5t-6.5 3.5l-443 373q-6 -8 -9 -17.5t-3 -19.5v-469q0 -26 19 -45t45 -19h575q9 0 15.5 -6t6.5 -15t-6.5 -15.5t-15.5 -6.5h-575q-44 0 -75 31.5t-31 75.5v469
q0 44 31 75.5t75 31.5h809q44 0 75.5 -31.5t31.5 -75.5v-298q0 -9 -6.5 -15.5t-14.5 -6.5v0zM915 789h-809q-4 0 -8 -0.5t-8 -1.5l421 -354l421 354q-4 1 -8 1.5t-9 0.5v0z" />
    <glyph glyph-name="uniE85E" unicode="&#xe85e;" 
d="M1003 341q-9 0 -15.5 6.5t-6.5 15.5v320q0 10 -3 19t-8 17l-444 -373q-3 -2 -6.5 -3.5t-7.5 -1.5t-7.5 1.5t-6.5 3.5l-444 373q-5 -8 -8 -17t-3 -19v-470q0 -26 18.5 -45t45.5 -19h512q9 0 15 -6t6 -15t-6 -15t-15 -6h-512q-44 0 -75.5 31t-31.5 75v470q0 44 31.5 75
t75.5 31h810q44 0 75.5 -31t31.5 -75v-320q0 -9 -6 -15.5t-15 -6.5v0zM917 747h-810q-5 0 -9 -1l-8 -2l422 -353l422 353l-8 2t-9 1v0zM747 235h256q8 0 14.5 -6.5t6.5 -15.5q0 -8 -6.5 -14.5t-14.5 -6.5h-256q-9 0 -15.5 6.5t-6.5 14.5q0 9 6.5 15.5t15.5 6.5v0z" />
    <glyph glyph-name="uniE85F" unicode="&#xe85f;" 
d="M1003 491q-9 0 -15.5 6t-6.5 15v213q0 10 -3 19.5t-8 17.5l-444 -373q-3 -3 -6.5 -4t-7.5 -1t-7.5 1t-6.5 4l-444 373q-5 -8 -8 -17.5t-3 -19.5v-469q0 -26 18.5 -45t45.5 -19h469q9 0 15 -6.5t6 -14.5q0 -9 -6 -15.5t-15 -6.5h-469q-44 0 -75.5 31.5t-31.5 75.5v469
q0 44 31.5 75.5t75.5 31.5h810q44 0 75.5 -31.5t31.5 -75.5v-213q0 -9 -6 -15t-15 -6v0zM917 789h-810q-5 0 -9 -0.5t-8 -1.5l422 -354l422 354q-4 1 -8 1.5t-9 0.5v0zM704 196q1 1 1 1.5t1 1.5q0 1 1 2l2 2v1v0l175 175l1 1h1v1l1 1q11 11 25.5 17t30.5 6v0q17 0 31.5 -6
t25.5 -17q12 -12 18 -26.5t6 -30.5t-6 -31t-18 -26l-0.5 -0.5l-0.5 -0.5l-0.5 -0.5l-0.5 -0.5l-175 -175q0 -1 -0.5 -1t-1.5 -1l-1 -0.5t-2 -1.5q-1 0 -2 -0.5t-2 -1.5h-1h-1l-104 -21h-2h-2q-4 0 -8 1.5t-7 4.5q-4 4 -5.5 9t-0.5 10l20 105q1 0 1 0.5v1.5v0zM798 125
l170 171h0.5t0.5 1q1 0 1 0.5v0.5q6 5 8.5 12t2.5 15q0 7 -2.5 14t-8.5 13q-5 5 -12 8t-15 3v0q-7 0 -14 -3t-12 -8l-1 -1h-1v-1l-1 -1l-170 -170l-13 -67l67 13v0z" />
    <glyph glyph-name="uniE860" unicode="&#xe860;" 
d="M1003 448q-9 0 -15.5 6.5t-6.5 14.5v214q0 10 -3 19t-8 17l-444 -373q-3 -2 -6.5 -3.5t-7.5 -1.5t-7.5 1.5t-6.5 3.5l-444 373q-5 -8 -8 -17t-3 -19v-470q0 -26 18.5 -45t45.5 -19h512q9 0 15 -6t6 -15t-6 -15t-15 -6h-512q-44 0 -75.5 31t-31.5 75v470q0 44 31.5 75
t75.5 31h810q44 0 75.5 -31t31.5 -75v-214q0 -8 -6 -14.5t-15 -6.5v0zM917 747h-810q-5 0 -9 -1l-8 -2l422 -353l422 353l-8 2t-9 1v0zM661 277h290l-91 92q-7 6 -7 15t7 15q6 6 14.5 6t15.5 -6l128 -128q1 -1 2.5 -3t1.5 -4v0q1 -2 1.5 -4t0.5 -4q0 -4 -1.5 -8t-4.5 -7
l-128 -128q-3 -3 -7 -4.5t-8 -1.5t-8 1.5t-7 4.5q-7 6 -7 15t7 15l91 92h-290q-9 0 -15 6t-6 15t6 15t15 6v0z" />
    <glyph glyph-name="uniE861" unicode="&#xe861;" 
d="M1003 480q-9 0 -15.5 6.5t-6.5 14.5v214q0 10 -3 19.5t-9 17.5l-444 -374q-3 -2 -6.5 -3.5t-7.5 -1.5t-7.5 1.5t-6.5 3.5l-443 373q-5 -8 -8 -17t-3 -19v-470q0 -26 18.5 -45t44.5 -19h597q8 0 14.5 -6t6.5 -15t-6.5 -15t-14.5 -6h-597q-44 0 -75 31t-31 75v470
q0 44 31 75t75 31h810q44 0 75 -31t31 -75v-214q0 -8 -5.5 -14.5t-13.5 -6.5v0zM916 779h-810q-4 0 -8 -1l-8 -2l421 -353l421 353l-8 2t-8 1v0zM730 303l128 128v0v0v0v0q1 2 3 3l4 2q2 0 4 0.5t4 0.5t4 -0.5t4 -0.5q2 -1 3.5 -2t3.5 -3v0v0l128 -128q6 -6 6 -15t-6 -15
q-3 -3 -7 -4.5t-8 -1.5t-8 1.5t-7 4.5l-92 92v-269q0 -9 -6 -15t-15 -6t-15 6t-6 15v269l-92 -92q-6 -6 -15 -6t-15 6t-6 15t6 15v0z" />
    <glyph glyph-name="uniE862" unicode="&#xe862;" horiz-adv-x="1023" 
d="M936 -64h-847q-36 0 -62.5 25t-26.5 60v492q0 5 2.5 9t6.5 7l0.5 0.5l0.5 0.5l118 103v0v0v179q0 9 7.5 14.5t15.5 5.5h207q0 1 0.5 1h0.5l140 122q6 5 14 5t14 -5l141 -123h206q9 0 16.5 -5.5t7.5 -14.5v-180l118 -102q3 -3 5 -7.5t2 -8.5v-1v-1v-489q0 -36 -25.5 -61.5
t-61.5 -25.5v0zM57 514l71 -44v106l-71 -62v0zM513 911l-90 -79h180l-90 79v0zM855 791h-684v-342q0 -1 -0.5 -2.5t-0.5 -2.5l343 -212l343 212q-1 1 -1 2.5v2.5v342v0zM898 576v-106l71 44l-71 62v0zM983 472l-459 -283q-3 -2 -5.5 -2.5t-5.5 -0.5t-6 0.5t-5 2.5l-459 283
v-451q0 -18 14 -30t32 -12h847q19 0 33 12t14 30v451v0z" />
    <glyph glyph-name="uniE863" unicode="&#xe863;" 
d="M1003 64h-299q-9 0 -15 6.5t-6 14.5v214q0 9 6 15t15 6h43v21q0 44 31 75.5t75 31.5t75.5 -31.5t31.5 -75.5v-21h43q8 0 14.5 -6t6.5 -15v-214q0 -8 -6.5 -14.5t-14.5 -6.5v0zM917 341q0 27 -18.5 45.5t-45.5 18.5q-26 0 -45 -18.5t-19 -45.5v-21h128v21v0zM981 277h-256
v-170h256v170v0zM1003 405q-9 0 -15.5 6.5t-6.5 15.5v298q0 10 -3 19.5t-8 17.5l-444 -373q-3 -3 -6.5 -4t-7.5 -1t-7.5 1t-6.5 4l-444 373q-5 -8 -8 -17.5t-3 -19.5v-469q0 -26 18.5 -45t45.5 -19h512q9 0 15 -6.5t6 -14.5q0 -9 -6 -15.5t-15 -6.5h-512q-44 0 -75.5 31.5
t-31.5 75.5v469q0 44 31.5 75.5t75.5 31.5h810q44 0 75.5 -31.5t31.5 -75.5v-298q0 -9 -6 -15.5t-15 -6.5v0zM917 789h-810q-5 0 -9 -0.5t-8 -1.5l422 -354l422 354q-4 1 -8 1.5t-9 0.5v0z" />
    <glyph glyph-name="uniE864" unicode="&#xe864;" 
d="M1003 384q-9 0 -15.5 6t-6.5 15v342q0 10 -3 19t-8 17l-444 -373q-3 -2 -6.5 -3.5t-7.5 -1.5t-7.5 1.5t-6.5 3.5l-444 373q-5 -8 -8 -17t-3 -19v-470q0 -26 18.5 -45t45.5 -19h512q9 0 15 -6t6 -15t-6 -15t-15 -6h-512q-44 0 -75.5 31t-31.5 75v470q0 44 31.5 75t75.5 31
h810q44 0 75.5 -31t31.5 -75v-342q0 -9 -6 -15t-15 -6v0zM917 811h-810q-5 0 -9 -1l-8 -2l422 -353l422 353l-8 2t-9 1v0zM747 213h106v107q0 9 6.5 15t15.5 6q8 0 14.5 -6t6.5 -15v-107h107q8 0 14.5 -6t6.5 -15t-6.5 -15t-14.5 -6h-107v-107q0 -9 -6.5 -15t-14.5 -6
q-9 0 -15.5 6t-6.5 15v107h-106q-9 0 -15.5 6t-6.5 15t6.5 15t15.5 6v0z" />
    <glyph glyph-name="uniE865" unicode="&#xe865;" horiz-adv-x="1026" 
d="M937 -64h-848q-36 0 -62.5 25t-26.5 60v492q0 5 2.5 9t6.5 7l0.5 0.5l0.5 0.5l489 425q6 5 14 5t14 -5l489 -425v-0.5v-0.5q5 -3 7.5 -7t2.5 -9v-492q0 -35 -27 -60t-62 -25v0zM43 21q0 -18 14 -30t32 -12h848q18 0 32 12t14 30v451l-459 -283q-3 -2 -5.5 -2.5t-5.5 -0.5
t-6 0.5t-5 2.5l-459 283v-451v0zM513 911l-456 -397l456 -282l456 282l-456 397v0z" />
    <glyph glyph-name="uniE866" unicode="&#xe866;" 
d="M1003 331q-9 0 -15.5 6t-6.5 15v363q0 10 -3 19t-8 17l-444 -373q-3 -2 -6.5 -3.5t-7.5 -1.5t-7.5 1.5t-6.5 3.5l-444 373q-5 -8 -8 -17t-3 -19v-470q0 -26 18.5 -45t45.5 -19h512q9 0 15 -6t6 -15t-6 -15t-15 -6h-512q-44 0 -75.5 31t-31.5 75v470q0 44 31.5 75t75.5 31
h810q44 0 75.5 -31t31.5 -75v-363q0 -9 -6 -15t-15 -6v0zM917 779h-810q-5 0 -9 -1l-8 -2l422 -353l422 353l-8 2t-9 1v0zM740 239l92 -91v268q0 9 6.5 15t14.5 6q9 0 15.5 -6t6.5 -15v-268l91 91q7 6 15.5 6t14.5 -6q7 -6 7 -15t-7 -15l-128 -128q-2 -3 -6 -4.5t-9 -1.5
q-4 0 -8 1.5t-7 4.5v0l-128 128q-6 6 -6 15t6 15q7 6 15.5 6t14.5 -6v0z" />
    <glyph glyph-name="uniE867" unicode="&#xe867;" 
d="M1003 469q-9 0 -15.5 6.5t-6.5 15.5v213q0 10 -3 19t-8 17l-444 -372q-3 -3 -6.5 -4t-7.5 -1t-7.5 1t-6.5 4l-444 372q-5 -8 -8 -17t-3 -19v-469q0 -27 18.5 -45.5t45.5 -18.5h512q9 0 15 -6.5t6 -15.5q0 -8 -6 -14.5t-15 -6.5h-512q-44 0 -75.5 31.5t-31.5 75.5v469
q0 44 31.5 75.5t75.5 31.5h810q44 0 75.5 -31.5t31.5 -75.5v-213q0 -9 -6 -15.5t-15 -6.5v0zM917 768h-810q-5 0 -9 -0.5t-8 -1.5l422 -354l422 354q-4 1 -8 1.5t-9 0.5v0zM747 256q8 0 14.5 -6t6.5 -15q0 -44 31.5 -75.5t75.5 -31.5t75 31.5t31 75.5t-31 75t-75 31h-23
l27 -27q6 -7 6 -15.5t-6 -14.5q-3 -4 -7 -5.5t-8 -1.5t-8 1.5t-7 5.5l-64 64q-6 6 -6 15t6 15l64 64q6 6 15 6t15 -6t6 -15t-6 -15l-28 -28h23q62 0 106 -44t44 -105q0 -62 -44 -106t-105 -44q-62 0 -106 44t-44 106q0 9 6.5 15t15.5 6v0z" />
    <glyph glyph-name="uniE868" unicode="&#xe868;" 
d="M1003 341q-9 0 -15.5 6.5t-6.5 15.5v362q0 10 -3 19.5t-8 17.5l-444 -373q-3 -3 -6.5 -4t-7.5 -1t-7.5 1t-6.5 4l-444 373q-5 -8 -8 -17.5t-3 -19.5v-469q0 -26 18.5 -45t45.5 -19h469q9 0 15 -6t6 -15t-6 -15.5t-15 -6.5h-469q-44 0 -75.5 31.5t-31.5 75.5v469
q0 44 31.5 75.5t75.5 31.5h810q44 0 75.5 -31.5t31.5 -75.5v-362q0 -9 -6 -15.5t-15 -6.5v0zM917 789h-810q-5 0 -9 -0.5t-8 -1.5l422 -354l422 354q-4 1 -8 1.5t-9 0.5v0zM753 356q6 7 15 7t15 -7q6 -6 6 -15t-6 -15l-49 -49h103q77 0 132 -56t55 -136q0 -8 -6 -14.5
t-15 -6.5t-15.5 6.5t-6.5 14.5q0 62 -42 106t-102 44h-103l49 -49q6 -7 6 -15.5t-6 -14.5q-3 -4 -7 -5.5t-8 -1.5t-8 1.5t-7 5.5l-85 85q-7 6 -7 15t7 15l85 85v0z" />
    <glyph glyph-name="uniE869" unicode="&#xe869;" 
d="M1001 414q-9 0 -14.5 7.5t-5.5 15.5v278q0 10 -3 19.5t-9 17.5l-444 -374q-3 -2 -6.5 -3.5t-7.5 -1.5t-7.5 1.5t-6.5 3.5l-443 373q-6 -8 -9 -17t-3 -19v-470q0 -26 19 -45t45 -19h511q9 0 15.5 -6t6.5 -15t-6.5 -15t-15.5 -6h-511q-44 0 -75 31t-31 75v470q0 44 31 75
t75 31h809q44 0 75.5 -31t31.5 -75v-280q0 -9 -6.5 -15t-14.5 -6v0zM915 779h-809q-4 0 -8 -1l-8 -2l421 -353l421 353l-8 2t-9 1v0zM830 416q62 0 105.5 -44t43.5 -105q0 -25 -8 -48t-22 -42l67 -66q6 -6 6 -15t-6 -15q-3 -3 -7 -4.5t-8 -1.5t-8 1.5t-7 4.5l-67 66
q-18 -14 -41 -22t-48 -8q-61 0 -105 44t-44 106q0 61 44 105t105 44v0zM830 160q44 0 75.5 31.5t31.5 75.5t-31.5 75t-75.5 31t-75 -31t-31 -75t31 -75.5t75 -31.5v0z" />
    <glyph glyph-name="uniE86A" unicode="&#xe86a;" 
d="M1022 679l-57 -464q-4 -35 -31 -60t-61 -25h-575q-9 0 -15 6.5t-6 14.5q0 9 6 15.5t15 6.5h575q18 0 32.5 13.5t16.5 32.5l57 464l-412 -315q-3 -2 -6.5 -3t-6.5 -1q-5 0 -9 2t-7 5l-320 362q-1 1 -1.5 2.5t-1.5 2.5v0.5v0.5q-1 1 -1 2.5t-1 2.5v1.5v1.5v0v0q0 1 0.5 2.5
t0.5 2.5v1.5t1 1.5q0 1 0.5 2t1.5 1q1 1 1.5 2t1.5 2v0v1q1 0 1.5 0.5t1.5 0.5q1 1 2 1.5t2 0.5q1 1 2 1h2t1.5 0.5t1.5 0.5h703q18 0 35 -8t30 -21q11 -13 16 -28.5t4 -31.5v0zM939 727h-659l276 -313l402 306q-4 3 -9 5t-10 2v0zM234 555q0 -9 -6 -15t-15 -6h-128
q-9 0 -15 6t-6 15t6 15.5t15 6.5h128q9 0 15 -6.5t6 -15.5v0zM298 428q0 -9 -6 -15.5t-15 -6.5h-256q-9 0 -15 6.5t-6 15.5t6 15t15 6h256q9 0 15 -6t6 -15v0zM149 321h213q9 0 15 -6t6 -15t-6 -15t-15 -6h-213q-9 0 -15 6t-6 15t6 15t15 6v0z" />
    <glyph glyph-name="uniE86B" unicode="&#xe86b;" 
d="M1001 384q-9 0 -14.5 6.5t-5.5 14.5v320q0 11 -3 20t-9 17l-444 -372q-3 -3 -6.5 -4t-7.5 -1q-3 0 -6.5 1t-6.5 4l-444 372q-5 -8 -8 -17t-3 -19v-469q0 -26 18.5 -45t44.5 -19h512q9 0 15 -6t6 -15t-6 -15t-15 -6h-512q-44 0 -75 31t-31 75v469q0 44 31 75t75 31h810
q44 0 75.5 -31t31.5 -75v-320q0 -9 -6.5 -15.5t-15.5 -6.5v0zM916 790h-810q-4 0 -8 -1l-8 -2l421 -353l422 353q-4 1 -8.5 2t-8.5 1v0zM700 292l92 14l41 88q2 6 7.5 9t11.5 3t11.5 -3t7.5 -9l42 -88l92 -14q5 -1 10 -5t6 -9q2 -6 1 -12t-5 -10l-68 -69l16 -97
q1 -6 -1 -11.5t-7 -9.5q-3 -2 -6 -3t-7 -1q-2 0 -5 1t-5 2l-82 45l-82 -45q-5 -3 -11 -2.5t-11 3.5q-5 4 -7.5 9.5t-1.5 11.5l16 97l-67 69q-4 4 -5.5 10t0.5 12q2 5 6.5 9t10.5 5v0zM793 210q3 -4 4.5 -9t1.5 -10l-11 -64l54 29q2 2 4.5 2.5t5.5 0.5t5.5 -0.5t4.5 -2.5
l54 -29l-10 64q-1 5 0.5 10t4.5 9l46 46l-62 10q-5 1 -9.5 4t-6.5 8l-27 57l-27 -57q-2 -5 -6 -8t-10 -4l-62 -10l46 -46v0z" />
    <glyph glyph-name="uniE86C" unicode="&#xe86c;" 
d="M937 107h-850q-36 0 -61.5 25t-25.5 60v512q0 35 25.5 60t61.5 25h850q36 0 61.5 -25t25.5 -60v-512q0 -35 -25.5 -60t-61.5 -25v0zM43 192q0 -18 13 -30.5t31 -12.5h850q18 0 31 12.5t13 30.5v512v5.5t-1 4.5l-454 -389q-3 -2 -6.5 -3.5t-7.5 -1.5t-7.5 1.5t-6.5 3.5
l-454 389q-1 -2 -1 -4.5v-5.5v-512v0zM87 747q-4 0 -7 -0.5t-6 -1.5l438 -376l438 376q-3 1 -6 1.5t-7 0.5h-850v0z" />
    <glyph glyph-name="uniE86D" unicode="&#xe86d;" 
d="M1022 469v-405q0 -18 -13.5 -30.5t-31.5 -12.5h-934q-18 0 -30.5 12.5t-12.5 30.5v418l0.5 1l0.5 1v2v1q0 1 -0.5 2t-0.5 2q0 4 1.5 7t3.5 6l94 355q1 7 7 11.5t13 4.5h782q7 0 13 -4.5t7 -11.5l94 -355q2 -3 3.5 -6t1.5 -7q0 -1 -0.5 -2t-0.5 -2t0.5 -3t-0.5 -3
q2 -3 2.5 -6t0.5 -6v0zM979 64v405h-278q-8 -71 -63 -120.5t-128 -49.5q-72 0 -126.5 49.5t-62.5 120.5h-278v-405h936v0zM885 832h-750l-84 -320h290q9 0 15 -6t6 -15q0 -61 44 -105.5t104 -44.5q61 0 105.5 44.5t44.5 105.5q0 9 6 15t15 6h288l-84 320v0z" />
    <glyph glyph-name="uniE86E" unicode="&#xe86e;" 
d="M1021 11q0 -27 -18.5 -45.5t-44.5 -18.5h-892q-26 0 -46 18.5t-20 45.5v384q0 3 1.5 6t4.5 6l95 293q2 7 7.5 11t12.5 4h9v106q0 9 6 15.5t15 6.5h722q9 0 15 -6.5t6 -15.5v-106h8q7 0 13 -4t8 -11l96 -296q1 -2 1.5 -4.5t0.5 -4.5v-1v0v-0.5v-0.5v-382v0zM130 651
l-77 -235h77v235v0zM853 685q-1 2 -1.5 4t-0.5 4q0 3 0.5 5t1.5 4v98h-682v-99q0 -2 0.5 -4t0.5 -4t-0.5 -3.5t-0.5 -3.5v-270h171q9 0 15 -6t6 -15q0 -62 43.5 -106t105.5 -44q61 0 104.5 44t43.5 106q0 9 6.5 15t15.5 6h171v269v0zM894 651v-235h76l-76 235v0zM981 373
h-279q-8 -72 -62.5 -121t-127.5 -49q-74 0 -128 49t-62 121h-279v-362q0 -9 7 -15.5t16 -6.5h892q8 0 15.5 6.5t7.5 15.5v362v0zM830 907h-637q-8 0 -14.5 6t-6.5 15t6.5 15t14.5 6h637q9 0 15 -6t6 -15t-6 -15t-15 -6v0z" />
    <glyph glyph-name="uniE86F" unicode="&#xe86f;" horiz-adv-x="1020" 
d="M1020 0q0 -26 -19 -45t-45 -19h-892q-27 0 -45.5 19t-18.5 45v383v0v0v0.5v0.5q0 1 0.5 1.5t0.5 1.5v0.5v0.5v2q0 1 0.5 1.5t0.5 1.5l105 402q2 7 7.5 11.5t13.5 4.5h233q9 0 15 -6.5t6 -15.5q0 -8 -6 -14.5t-15 -6.5h-217l-95 -363h291q9 0 15 -6t6 -15
q0 -62 43.5 -105.5t105.5 -43.5q61 0 105 43.5t44 105.5q0 9 6 15t15 6h291l-95 363h-217q-9 0 -15.5 6.5t-6.5 14.5q0 9 6.5 15.5t15.5 6.5h233q7 0 13 -4.5t8 -11.5l105 -402v-1.5v-1.5l1 -2v-0.5v-0.5q0 -1 0.5 -1.5t0.5 -1.5v-0.5v-0.5v0v0v-383v0zM977 363h-277
q-8 -72 -62 -121.5t-128 -49.5t-128 49.5t-62 121.5h-277v-363q0 -9 6 -15t15 -6h892q9 0 15 6t6 15v363v0zM665 655q6 6 15 6t15 -6t6 -15t-6 -15l-170 -171h-0.5h-0.5l-2.5 -2.5t-3.5 -1.5q-2 -1 -4 -1.5t-4 -0.5t-4 0.5t-4 1.5q-2 0 -3.5 1.5t-3.5 2.5v0v0l-170 171
q-6 6 -6 15t6 15t15 6t15 -6l134 -134v418q0 9 6 15t15 6t15 -6t6 -15v-418l134 134v0z" />
    <glyph glyph-name="uniE870" unicode="&#xe870;" 
d="M917 107h-810q-44 0 -75.5 31t-31.5 75v470q0 44 31.5 75t75.5 31h810q44 0 75.5 -31t31.5 -75v-470q0 -44 -31.5 -75t-75.5 -31v0zM981 683q0 26 -18.5 45t-45.5 19h-810q-27 0 -45.5 -19t-18.5 -45v-470q0 -26 18.5 -45t45.5 -19h810q27 0 45.5 19t18.5 45v470v0z
M875 405h-214q-8 0 -14.5 6.5t-6.5 15.5v213q0 9 6.5 15t14.5 6h214q8 0 14.5 -6t6.5 -15v-213q0 -9 -6.5 -15.5t-14.5 -6.5v0zM853 619h-170v-171h170v171v0zM491 277h-342q-8 0 -14.5 6.5t-6.5 15.5t6.5 15t14.5 6h342q8 0 14.5 -6t6.5 -15t-6.5 -15.5t-14.5 -6.5v0z
M491 405h-342q-8 0 -14.5 6.5t-6.5 15.5q0 8 6.5 14.5t14.5 6.5h342q8 0 14.5 -6.5t6.5 -14.5q0 -9 -6.5 -15.5t-14.5 -6.5v0zM277 576h-128q-8 0 -14.5 6.5t-6.5 14.5q0 9 6.5 15.5t14.5 6.5h128q9 0 15.5 -6.5t6.5 -15.5q0 -8 -6.5 -14.5t-15.5 -6.5v0z" />
    <glyph glyph-name="uniE871" unicode="&#xe871;" 
d="M917 0h-810q-44 0 -75.5 31.5t-31.5 75.5v469q0 44 31.5 75.5t75.5 31.5h810q44 0 75.5 -31.5t31.5 -75.5v-469q0 -44 -31.5 -75.5t-75.5 -31.5v0zM981 576q0 26 -18.5 45t-45.5 19h-810q-27 0 -45.5 -19t-18.5 -45v-469q0 -27 18.5 -45.5t45.5 -18.5h810q27 0 45.5 18.5
t18.5 45.5v469v0zM875 299h-214q-8 0 -14.5 6t-6.5 15v213q0 9 6.5 15.5t14.5 6.5h214q8 0 14.5 -6.5t6.5 -15.5v-213q0 -9 -6.5 -15t-14.5 -6v0zM853 512h-170v-171h170v171v0zM491 171h-342q-8 0 -14.5 6t-6.5 15t6.5 15t14.5 6h342q8 0 14.5 -6t6.5 -15t-6.5 -15
t-14.5 -6v0zM491 299h-342q-8 0 -14.5 6t-6.5 15t6.5 15t14.5 6h342q8 0 14.5 -6t6.5 -15t-6.5 -15t-14.5 -6v0zM277 469h-128q-8 0 -14.5 6.5t-6.5 15.5t6.5 15t14.5 6h128q9 0 15.5 -6t6.5 -15t-6.5 -15.5t-15.5 -6.5v0zM939 747h-854q-8 0 -14.5 6t-6.5 15t6.5 15t14.5 6
h854q8 0 14.5 -6t6.5 -15t-6.5 -15t-14.5 -6v0zM875 853h-726q-8 0 -14.5 6.5t-6.5 15.5t6.5 15t14.5 6h726q8 0 14.5 -6t6.5 -15t-6.5 -15.5t-14.5 -6.5v0z" />
    <glyph glyph-name="uniE872" unicode="&#xe872;" 
d="M1001 -21q-9 0 -14.5 6t-5.5 15v70l-768 154v-224q0 -9 -6.5 -15t-14.5 -6q-9 0 -15.5 6t-6.5 15v233l-132 26q-16 4 -27 17t-11 30v284q0 17 11 30t27 17l943 189v70q0 9 5.5 15t14.5 6t15 -6t6 -15v-896q0 -9 -6 -15t-15 -6v0zM981 782l-935 -187q-1 0 -2.5 -2t-1.5 -3
v-284q0 -1 1.5 -3t2.5 -2l935 -187v668v0z" />
    <glyph glyph-name="uniE873" unicode="&#xe873;" 
d="M896 385v-213q0 -6 -3 -11t-8 -8q-2 -1 -5 -1.5t-5 -0.5q-3 0 -5.5 0.5t-5.5 1.5l-294 168h-357v-277q0 -9 -6 -15t-15 -6t-15 6t-6 15v277h-107q-26 0 -45 19t-19 45v256q0 26 19 45t45 19h506l294 167q5 3 10.5 3t10.5 -3t8 -8t3 -10v-213q53 0 90.5 -37.5t37.5 -90.5
t-37.5 -90.5t-90.5 -37.5v0zM171 662h-107q-9 0 -15 -6.5t-6 -14.5v-256q0 -9 6 -15t15 -6h107v298v0zM853 817l-266 -152h-1l-1 -1q-1 0 -2 -0.5t-2 -0.5t-2 -0.5t-2 -0.5h-0.5h-0.5h-363v-298h363l0.5 -0.5l0.5 -0.5h2h2q1 -1 2 -1t2 -1h1h1l266 -152v608v0zM896 598v-170
q35 0 60 25t25 60t-25 60t-60 25v0z" />
    <glyph glyph-name="uniE874" unicode="&#xe874;" 
d="M512 128h-53.5h-41.5q-26 -44 -63.5 -69.5t-72 -38.5t-60 -16.5t-28.5 -3.5h-0.5h-0.5q-6 0 -11 3t-8 8q-3 6 -2.5 12t4.5 11l27.5 49t31.5 117q-57 29 -100.5 64.5t-73 75t-45 83t-15.5 89.5q0 80 40.5 149.5t110 122t162.5 82.5t199 30t199 -30t162.5 -82.5t110 -122
t40.5 -149.5q0 -79 -40.5 -149t-110 -122t-162.5 -82.5t-199 -30.5v0zM512 853q-97 0 -182.5 -26.5t-149 -73t-100.5 -108.5t-37 -133q0 -55 23 -100t57 -80t72.5 -60t69.5 -41q1 0 1.5 -0.5l1.5 -1.5q1 0 1.5 -0.5l1.5 -1.5t1.5 -2t1.5 -2q0 -1 0.5 -1.5t0.5 -1.5
q1 -1 1 -2.5v-2.5q1 -1 1 -1.5v-1.5v0v-1v0v0q0 -49 -14.5 -91t-28.5 -70q34 8 80 32.5t72 76.5l1.5 1.5t0.5 1.5l1.5 1.5l1.5 1.5t2 1.5l1 0.5q1 1 2 1.5t2 0.5q1 1 2 1h2t2 0.5l1 0.5h0.5h0.5h8h36h62q97 0 182.5 27t149 73t100.5 108.5t37 132.5q0 71 -37 133
t-100.5 108.5t-149 73t-182.5 26.5v0zM512 321q-18 0 -30.5 12.5t-12.5 30.5t12.5 30.5t30.5 12.5t30.5 -12.5t12.5 -30.5t-12.5 -30.5t-30.5 -12.5v0zM512 471q-9 0 -15 6t-6 15v213q0 9 6 15.5t15 6.5t15 -6.5t6 -15.5v-213q0 -9 -6 -15t-15 -6v0z" />
    <glyph glyph-name="uniE875" unicode="&#xe875;" 
d="M512 129q-22 0 -53.5 -0.5t-41.5 -0.5q-26 -44 -63.5 -69.5t-72 -38.5t-60 -16.5t-28.5 -3.5h-0.5h-0.5q-6 0 -11 3t-8 8q-3 6 -2.5 12t4.5 11l27.5 49t31.5 117q-57 29 -100.5 64.5t-73 75t-45 83t-15.5 89.5q0 80 40.5 149.5t110 122t162.5 82.5t199 30t199 -30
t162.5 -82.5t110 -122t40.5 -149.5q0 -79 -40.5 -149t-110 -122t-162.5 -82t-199 -30v0zM512 853q-97 0 -182.5 -26.5t-149 -73t-100.5 -108.5t-37 -133q0 -55 23 -100t57 -80t72.5 -60t69.5 -41q1 0 1.5 -0.5l1.5 -1.5q1 0 1.5 -0.5l1.5 -1.5t1.5 -2t1.5 -2q0 -1 0.5 -1.5
t0.5 -1.5q1 -1 1 -2.5v-2.5q1 -1 1 -1.5v-1.5v0v-1v0v0q0 -49 -14.5 -91t-28.5 -70q34 8 80 32.5t72 76.5q3 5 7.5 8t10.5 3l0.5 0.5t1.5 0.5h8h36h62q97 0 182.5 27t149 73.5t100.5 108.5t37 132q0 71 -37 133t-100.5 108.5t-149 73t-182.5 26.5v0zM533 472v-24v-3.5
t-1 -3.5q0 -1 -1 -2t-1 -2v0q-1 -1 -1.5 -2t-1.5 -2t-2 -1.5l-1 -0.5v0v0q-2 -1 -3 -2t-2 -1q-2 -1 -3.5 -1h-3.5h-3.5t-3.5 1l-4 2t-4 3t-3 4l-2 4t-1 3.5v3.5v43q0 8 6 14.5t15 6.5q35 0 60 25t25 60q0 36 -25 61t-60 25t-60 -25t-25 -61q0 -8 -6.5 -14.5t-15.5 -6.5
q-8 0 -14.5 6.5t-6.5 14.5q0 53 37.5 90.5t90.5 37.5t90.5 -37.5t37.5 -90.5q0 -47 -30.5 -82.5t-76.5 -42.5v0zM512 384q18 0 30.5 -12.5t12.5 -30.5q0 -17 -12.5 -29.5t-30.5 -12.5t-30.5 12.5t-12.5 29.5q0 18 12.5 30.5t30.5 12.5v0z" />
    <glyph glyph-name="uniE876" unicode="&#xe876;" 
d="M512 129q-22 0 -53.5 -0.5t-41.5 -0.5q-26 -44 -63.5 -69.5t-72 -38.5t-60 -16.5t-28.5 -3.5h-0.5h-0.5q-6 0 -11 3t-8 8q-3 6 -2.5 12t4.5 11q0 1 27.5 49.5t31.5 116.5q-57 29 -100.5 64.5t-73 75.5t-45 83t-15.5 89q0 80 40.5 149.5t110 122t162.5 82.5t199 30
t199 -30t162.5 -82.5t110 -122t40.5 -149.5q0 -79 -40.5 -149t-110 -122t-162.5 -82t-199 -30v0zM512 853q-97 0 -182.5 -26.5t-149 -73t-100.5 -108.5t-37 -133q0 -55 23 -100t57 -80t72.5 -60t69.5 -41q1 0 1.5 -0.5l1.5 -1.5q1 0 1.5 -0.5l1.5 -1.5t1.5 -2t1.5 -2
q0 -1 0.5 -1.5t0.5 -1.5q1 -1 1 -2.5v-2.5q1 -1 1 -1.5v-1.5v0v-1v0v0q0 -49 -14.5 -91t-28.5 -70q34 8 80 32.5t72 76.5q1 1 1.5 2t1.5 1q0 1 0.5 2t1.5 1q1 1 2 1.5l3 1.5l0.5 0.5t1.5 0.5q1 1 2.5 1h2.5t1.5 0.5t1.5 0.5h8h36h62q97 0 182.5 27t149 73.5t100.5 108.5
t37 132q0 71 -37 133t-100.5 108.5t-149 73t-182.5 26.5v0zM683 576h-48l-32 -128h37q9 0 15 -6t6 -15t-6 -15.5t-15 -6.5h-47l-18 -69q-1 -7 -7 -11.5t-13 -4.5h-3t-3 1q-8 2 -12.5 9.5t-2.5 16.5l15 58h-148l-18 -69q-1 -7 -7 -11.5t-13 -4.5h-3t-3 1q-8 2 -12.5 9.5
t-2.5 16.5l15 58h-37q-9 0 -15 6.5t-6 15.5t6 15t15 6h47l32 128h-36q-9 0 -15.5 6.5t-6.5 14.5q0 9 6.5 15.5t15.5 6.5h47l17 69q2 8 10 13t16 2q9 -2 13.5 -9.5t2.5 -15.5l-15 -59h148l17 69q2 8 10 13t16 2q9 -2 13.5 -9.5t2.5 -15.5l-15 -59h37q8 0 14.5 -6.5t6.5 -15.5
q0 -8 -6.5 -14.5t-14.5 -6.5v0zM443 576l-32 -128h148l32 128h-148v0z" />
    <glyph glyph-name="uniE877" unicode="&#xe877;" 
d="M512 128h-53.5h-41.5q-26 -44 -63.5 -69.5t-72 -38.5t-60 -16.5t-28.5 -3.5h-0.5h-0.5q-6 0 -11 3t-8 8q-3 6 -2.5 12t4.5 11l27.5 49t31.5 117q-57 29 -100.5 64.5t-73 75t-45 83t-15.5 89.5q0 80 40.5 149.5t110 122t162.5 82.5t199 30t199 -30t162.5 -82.5t110 -122
t40.5 -149.5q0 -79 -40.5 -149t-110 -122t-162.5 -82.5t-199 -30.5v0zM512 853q-97 0 -182.5 -26.5t-149 -73t-100.5 -108.5t-37 -133q0 -55 23 -100t57 -80t72.5 -60t69.5 -41q1 0 1.5 -0.5l1.5 -1.5q1 0 1.5 -0.5l1.5 -1.5t1.5 -2t1.5 -2q0 -1 0.5 -1.5t0.5 -1.5
q1 -1 1 -2.5v-2.5q1 -1 1 -1.5v-1.5v0v-1v0v0q0 -49 -14.5 -91t-28.5 -70q34 8 80 32.5t72 76.5l1.5 1.5t0.5 1.5l1.5 1.5l1.5 1.5t2 1.5l1 0.5q1 1 2 1.5t2 0.5q1 1 2 1h2t2 0.5l1 0.5h0.5h0.5h8h36h62q97 0 182.5 27t149 73t100.5 108.5t37 132.5q0 71 -37 133
t-100.5 108.5t-149 73t-182.5 26.5v0zM526 304q-1 -1 -2 -1.5t-2 -0.5q0 -1 -0.5 -1t-1.5 -1q-2 0 -4 -0.5t-4 -0.5v0v0v0v0q-2 0 -4 0.5t-4 0.5q-1 1 -1.5 1t-0.5 1q-1 0 -2 0.5t-2 1.5l-180 159q-19 19 -30 43.5t-11 49.5q0 52 37.5 89.5t90.5 37.5q34 0 62 -16t45 -41
q17 25 45 41t62 16q53 0 90.5 -37.5t37.5 -89.5q0 -25 -11 -49t-30 -43l-180 -160v0zM619 640q-36 0 -61 -24.5t-25 -59.5q0 -9 -6 -15t-15 -6t-15 6t-6 15q0 35 -25 59.5t-61 24.5q-35 0 -60 -24.5t-25 -59.5q0 -16 7.5 -32.5t20.5 -29.5l164 -145l165 146q12 12 19.5 28.5
t7.5 32.5q0 35 -25 59.5t-60 24.5v0z" />
    <glyph glyph-name="uniE878" unicode="&#xe878;" 
d="M512 128h-53.5h-41.5q-26 -44 -63.5 -69.5t-72 -38.5t-60 -16.5t-28.5 -3.5h-0.5h-0.5q-6 0 -11 3t-8 8q-3 6 -2.5 12t4.5 11l27.5 49t31.5 117q-57 29 -100.5 64.5t-73 75t-45 83t-15.5 89.5q0 80 40.5 149.5t110 122t162.5 82.5t199 30t199 -30t162.5 -82.5t110 -122
t40.5 -149.5q0 -79 -40.5 -149t-110 -122t-162.5 -82.5t-199 -30.5v0zM512 853q-97 0 -182.5 -26.5t-149 -73t-100.5 -108.5t-37 -133q0 -55 23 -100t57 -80t72.5 -60t69.5 -41q1 0 1.5 -0.5l1.5 -1.5q1 0 1.5 -0.5l1.5 -1.5t1.5 -2t1.5 -2q0 -1 0.5 -1.5t0.5 -1.5
q1 -1 1 -2.5v-2.5q1 -1 1 -1.5v-1.5v0v-1v0v0q0 -49 -14.5 -91t-28.5 -70q34 8 80 32.5t72 76.5q2 4 5 6.5t6 3.5h1v0q1 1 2.5 1h2.5t1.5 0.5t1.5 0.5h8h36h62q97 0 182.5 27t149 73t100.5 108.5t37 132.5q0 71 -37 133t-100.5 108.5t-149 73t-182.5 26.5v0zM597 384
q-26 0 -45 18.5t-19 45.5q0 26 19 45t45 19q6 0 11.5 -1t10.5 -3v166l-171 -56v-234v0v0q0 -27 -19 -45.5t-45 -18.5t-45 18.5t-19 45.5q0 26 19 45t45 19q6 0 11 -1t10 -3v189q0 7 4 12.5t11 7.5l213 71q5 2 10 1t9 -4q5 -3 7 -7.5t2 -9.5v-249v-1.5v-0.5v-3v-2
q0 -27 -18.5 -45.5t-45.5 -18.5v0zM384 405q-9 0 -15 -6t-6 -15t6 -15t15 -6t15 6t6 15v0v0v0q0 9 -6 15t-15 6v0zM597 469q-8 0 -14.5 -6t-6.5 -15t6.5 -15t14.5 -6q9 0 15.5 6t6.5 15t-6.5 15t-15.5 6v0z" />
    <glyph glyph-name="uniE879" unicode="&#xe879;" 
d="M512 129q-22 0 -53.5 -0.5t-41.5 -0.5q-26 -44 -63.5 -69.5t-72 -38.5t-60 -16.5t-28.5 -3.5h-0.5h-0.5q-6 0 -11 3t-8 8q-3 6 -2.5 12t4.5 11q0 1 27.5 49.5t31.5 116.5q-57 29 -100.5 64.5t-73 75.5t-45 83t-15.5 89q0 80 40.5 149.5t110 122t162.5 82.5t199 30
t199 -30t162.5 -82.5t110 -122t40.5 -149.5q0 -79 -40.5 -149t-110 -122t-162.5 -82t-199 -30v0zM512 853q-97 0 -182.5 -26.5t-149 -73t-100.5 -108.5t-37 -133q0 -55 23 -100t57 -80t72.5 -60t69.5 -41q1 0 1.5 -0.5l1.5 -1.5q1 0 1.5 -0.5l1.5 -1.5t1.5 -2t1.5 -2
q0 -1 0.5 -1.5t0.5 -1.5q1 -1 1 -2.5v-2.5q1 -1 1 -1.5v-1.5v0v-1v0v0q0 -49 -14.5 -91t-28.5 -70q34 8 80 32.5t72 76.5q1 2 2 3l2 2l0.5 0.5l0.5 0.5q1 1 2.5 2t3.5 2h0.5h0.5q1 1 2.5 1h2.5t1.5 0.5t1.5 0.5h8h36h62q97 0 182.5 27t149 73.5t100.5 108.5t37 132
q0 71 -37 133t-100.5 108.5t-149 73t-182.5 26.5v0zM597 320q-8 0 -14.5 6.5t-6.5 14.5q0 9 6 15.5t15 6.5q6 0 38 12t44 73h-103q-9 0 -15 6.5t-6 14.5v171q0 9 6 15t15 6h128q9 0 15 -6t6 -15v-171v-3t-1 -3q-10 -106 -68 -124.5t-59 -18.5v0zM683 619h-86v-128h86v128v0z
M341 320q-8 0 -14.5 6.5t-6.5 14.5q0 9 6 15.5t15 6.5q6 0 38 12t44 73h-103q-9 0 -15 6.5t-6 14.5v171q0 9 6 15t15 6h128q9 0 15 -6t6 -15v-171v-3t-1 -3q-10 -106 -68 -124.5t-59 -18.5v0zM427 619h-86v-128h86v128v0z" />
    <glyph glyph-name="uniE87A" unicode="&#xe87a;" 
d="M512 129q-22 0 -53.5 -0.5t-41.5 -0.5q-26 -44 -63.5 -69.5t-72 -38.5t-60 -16.5t-28.5 -3.5h-0.5h-0.5q-6 0 -11 3t-8 8q-3 6 -2.5 12t4.5 11q0 1 27.5 49.5t31.5 116.5q-57 29 -100.5 64.5t-73 75.5t-45 83t-15.5 89q0 80 40.5 149.5t110 122t162.5 82.5t199 30
t199 -30t162.5 -82.5t110 -122t40.5 -149.5q0 -79 -40.5 -149t-110 -122t-162.5 -82t-199 -30v0zM512 853q-97 0 -182.5 -26.5t-149 -73t-100.5 -108.5t-37 -133q0 -55 23 -100t57 -80t72.5 -60t69.5 -41q1 0 1.5 -0.5t1.5 -0.5l1.5 -1.5l1.5 -1.5t1.5 -2t1.5 -2
q0 -1 0.5 -1.5t0.5 -1.5q1 -1 1 -2.5v-2.5q1 -1 1 -1.5v-1.5v0v-1v0v0q0 -49 -14.5 -91t-28.5 -70q34 8 79.5 32.5t72.5 76.5q1 1 1.5 2t1.5 2q1 0 1 1t1 1q1 1 2.5 2t2.5 1q0 1 0.5 1h1.5q1 1 2.5 1h2.5t1.5 0.5t1.5 0.5h8h36h62q97 0 182.5 27t149 73.5t100.5 108.5
t37 132q0 71 -37 133t-100.5 108.5t-149 73t-182.5 26.5v0zM512 341q-120 0 -174.5 57t-57.5 60q-4 8 -2 16.5t10 13.5q7 4 15.5 2t13.5 -10q2 -3 48 -49.5t147 -46.5q102 0 148.5 48l46.5 48q5 8 13.5 10t15.5 -2q8 -5 10 -13.5t-2 -16.5q-3 -3 -57.5 -60t-174.5 -57v0z
M619 555q-18 0 -30.5 12.5t-12.5 29.5q0 18 12.5 30.5t30.5 12.5q17 0 29.5 -12.5t12.5 -30.5q0 -17 -12.5 -29.5t-29.5 -12.5v0zM405 555q-17 0 -29.5 12.5t-12.5 29.5q0 18 12.5 30.5t29.5 12.5q18 0 30.5 -12.5t12.5 -30.5q0 -17 -12.5 -29.5t-30.5 -12.5v0z" />
    <glyph glyph-name="uniE87B" unicode="&#xe87b;" 
d="M512 128h-53.5h-41.5q-26 -44 -63.5 -69.5t-72 -38.5t-60 -16.5t-28.5 -3.5h-0.5h-0.5q-6 0 -11 3t-8 8q-3 6 -2.5 12t4.5 11l27.5 49t31.5 117q-57 29 -100.5 64.5t-73 75t-45 83t-15.5 89.5q0 80 40.5 149.5t110 122t162.5 82.5t199 30t199 -30t162.5 -82.5t110 -122
t40.5 -149.5q0 -79 -40.5 -149t-110 -122t-162.5 -82.5t-199 -30.5v0zM512 853q-97 0 -182.5 -26.5t-149 -73t-100.5 -108.5t-37 -133q0 -55 23 -100t57 -80t72.5 -60t69.5 -41q1 0 1.5 -0.5l1.5 -1.5q1 0 1.5 -0.5l1.5 -1.5t1.5 -2t1.5 -2q0 -1 0.5 -1.5t0.5 -1.5
q1 -1 1 -2.5v-2.5q1 -1 1 -1.5v-1.5v0v-1v0v0q0 -49 -14.5 -91t-28.5 -70q34 8 80 32.5t72 76.5q1 2 2 3l3 3v0v0q1 1 2.5 2t3.5 2h0.5h0.5q1 1 2.5 1h2.5t1.5 0.5t1.5 0.5h8h36h62q97 0 182.5 27t149 73t100.5 108.5t37 132.5q0 71 -37 133t-100.5 108.5t-149 73
t-182.5 26.5v0zM640 555h85v-86h-85v86v0zM469 555h86v-86h-86v86v0zM299 555h85v-86h-85v86v0z" />
    <glyph glyph-name="uniE87C" unicode="&#xe87c;" 
d="M512 129q-22 0 -53.5 -0.5t-41.5 -0.5q-26 -44 -63.5 -69.5t-72 -38.5t-60 -16.5t-28.5 -3.5h-0.5h-0.5q-6 0 -11 3t-8 8q-3 6 -2.5 12t4.5 11l27.5 49t31.5 117q-57 29 -100.5 64.5t-73 75t-45 83t-15.5 89.5q0 80 40.5 149.5t110 122t162.5 82.5t199 30t199 -30
t162.5 -82.5t110 -122t40.5 -149.5q0 -79 -40.5 -149t-110 -122t-162.5 -82t-199 -30v0zM512 853q-97 0 -182.5 -26.5t-149 -73t-100.5 -108.5t-37 -133q0 -55 23 -100t57 -80t72.5 -60t69.5 -41q1 0 1.5 -0.5l1.5 -1.5q1 0 1.5 -0.5l1.5 -1.5t1.5 -2t1.5 -2q0 -1 0.5 -1.5
t0.5 -1.5q1 -1 1 -2.5v-2.5q1 -1 1 -1.5v-1.5v0v-1v0v0q0 -49 -14.5 -91t-28.5 -70q34 8 80 32.5t72 76.5q3 5 7.5 8t10.5 3l0.5 0.5t1.5 0.5h8h36h62q97 0 182.5 27t149 73.5t100.5 108.5t37 132q0 71 -37 133t-100.5 108.5t-149 73t-182.5 26.5v0z" />
    <glyph glyph-name="uniE87D" unicode="&#xe87d;" 
d="M960 192h-566l-164 -205q-3 -4 -7.5 -6t-9.5 -2h-3t-4 1q-6 2 -10 7.5t-4 12.5v192h-128q-26 0 -45 19t-19 45v597q0 27 19 45.5t45 18.5h896q26 0 45 -18.5t19 -45.5v-597q0 -26 -19 -45t-45 -19v0zM981 853q0 9 -6 15.5t-15 6.5h-896q-9 0 -15 -6.5t-6 -15.5v-597
q0 -9 6 -15t15 -6h149q9 0 15.5 -6.5t6.5 -15.5v-152l132 166h1v0l2 2t2 1q0 1 1 1.5t2 0.5q1 1 2 1t2 1h2h2l0.5 0.5l0.5 0.5h576q9 0 15 6t6 15v597v0zM512 363q-18 0 -30.5 12.5t-12.5 29.5q0 18 12.5 30.5t30.5 12.5t30.5 -12.5t12.5 -30.5q0 -17 -12.5 -29.5
t-30.5 -12.5v0zM512 512q-9 0 -15 6.5t-6 14.5v192q0 9 6 15.5t15 6.5t15 -6.5t6 -15.5v-192q0 -8 -6 -14.5t-15 -6.5v0z" />
    <glyph glyph-name="uniE87E" unicode="&#xe87e;" 
d="M960 192h-566l-164 -205q-3 -4 -7.5 -6t-9.5 -2h-3t-4 1q-6 2 -10 7.5t-4 12.5v192h-128q-26 0 -45 19t-19 45v597q0 27 19 45.5t45 18.5h896q26 0 45 -18.5t19 -45.5v-597q0 -26 -19 -45t-45 -19v0zM981 853q0 9 -6 15.5t-15 6.5h-896q-9 0 -15 -6.5t-6 -15.5v-597
q0 -9 6 -15t15 -6h149q9 0 15.5 -6.5t6.5 -15.5v-152l132 166h1v0l2 2t2 1q0 1 1 1.5t2 0.5q1 1 2 1t1 1h3h2l0.5 0.5l0.5 0.5h576q9 0 15 6t6 15v597v0zM533 514v-23q0 -2 -0.5 -4.5t-0.5 -4.5v0v0q-1 0 -1 -0.5t-1 -0.5q0 -2 -1 -3l-2 -2q-2 -2 -4 -3.5t-4 -1.5
q-2 -1 -3.5 -1.5t-3.5 -0.5t-3.5 0.5t-3.5 1.5q-2 0 -4 1.5t-4 3.5q-1 1 -2 2.5t-2 3.5h-0.5h-0.5v0q0 2 -0.5 4.5t-0.5 4.5v42q0 9 6 15.5t15 6.5q35 0 60 25t25 60t-25 60t-60 25t-60 -25t-25 -60q0 -9 -6.5 -15t-15.5 -6q-8 0 -14.5 6t-6.5 15q0 53 37.5 90.5t90.5 37.5
t90.5 -37.5t37.5 -90.5q0 -47 -30.5 -82.5t-76.5 -43.5v0zM512 427q18 0 30.5 -12.5t12.5 -30.5t-12.5 -30.5t-30.5 -12.5t-30.5 12.5t-12.5 30.5t12.5 30.5t30.5 12.5v0z" />
    <glyph glyph-name="uniE87F" unicode="&#xe87f;" 
d="M960 192h-566l-164 -205q-3 -4 -7.5 -6t-9.5 -2h-3t-4 1q-6 2 -10 7.5t-4 12.5v192h-128q-26 0 -45 19t-19 45v597q0 27 19 45.5t45 18.5h896q26 0 45 -18.5t19 -45.5v-597q0 -26 -19 -45t-45 -19v0zM981 853q0 9 -6 15.5t-15 6.5h-896q-9 0 -15 -6.5t-6 -15.5v-597
q0 -9 6 -15t15 -6h149q9 0 15.5 -6.5t6.5 -15.5v-152l132 166h1v0l2 2t2 1q0 1 1 1.5t2 0.5q1 1 2 1t1 1h3h2l0.5 0.5l0.5 0.5h576q9 0 15 6t6 15v597v0zM526 368q-1 -1 -2 -1.5t-2 -0.5q0 -1 -0.5 -1t-1.5 -1q-2 0 -4 -0.5t-4 -0.5v0v0v0v0q-2 0 -4 0.5t-4 0.5q-1 1 -1.5 1
t-0.5 1q-1 0 -2 0.5t-2 1.5l-180 159q-19 19 -30 44t-11 49q0 52 37.5 89.5t90.5 37.5q34 0 62 -16t45 -41q17 25 45 41t62 16q53 0 90.5 -37.5t37.5 -89.5q0 -24 -11 -48.5t-30 -43.5l-180 -160v0zM619 704q-36 0 -61 -24.5t-25 -59.5q0 -9 -6 -15t-15 -6t-15 6t-6 15
q0 35 -25 59.5t-61 24.5q-35 0 -60 -24.5t-25 -59.5q0 -16 7.5 -32.5t20.5 -29.5l164 -145l165 146q12 12 19.5 28.5t7.5 32.5q0 35 -25 59.5t-60 24.5v0z" />
    <glyph glyph-name="uniE880" unicode="&#xe880;" 
d="M960 192h-566l-164 -205q-3 -4 -7.5 -6t-9.5 -2h-3t-4 1q-6 2 -10 7.5t-4 12.5v192h-128q-26 0 -45 19t-19 45v597q0 27 19 45.5t45 18.5h896q26 0 45 -18.5t19 -45.5v-597q0 -26 -19 -45t-45 -19v0zM981 853q0 9 -6 15.5t-15 6.5h-896q-9 0 -15 -6.5t-6 -15.5v-597
q0 -9 6 -15t15 -6h149q9 0 15.5 -6.5t6.5 -15.5v-152l132 166h1v0l2 2t2 1q0 1 1 1.5t2 0.5q1 1 2 1t1 1h3h2l0.5 0.5l0.5 0.5h576q9 0 15 6t6 15v597v0zM703 570l-39 -147q-3 -17 -16 -28t-29 -11h-105q-12 0 -26.5 5t-24.5 12l-42 26h-16q0 -9 -6 -15.5t-15 -6.5t-15 6.5
t-6 15.5v192q0 9 6 15t15 6t15 -6t6 -15h27q7 20 17.5 52.5t12.5 39.5q5 16 19.5 26t31.5 10q21 0 42 -19t21 -45v-1v-1v-0.5v-0.5v-61h87q9 0 17 -3.5t14 -10.5q6 -6 8.5 -14.5t1.5 -16.5q0 -1 -0.5 -2t-0.5 -2v0zM556 576h-0.5h-0.5v0v0q-9 0 -15.5 6.5t-6.5 14.5v83
l0.5 0.5l0.5 0.5q0 1 -0.5 1t-0.5 1q0 7 -7.5 14t-12.5 7q-4 0 -7 -2t-3 -4q-3 -9 -19 -58l-16 -49q-2 -7 -7.5 -11t-12.5 -4h-43v-107h22q3 0 5.5 -0.5t5.5 -2.5l48 -29q1 0 1.5 -0.5t1.5 -0.5q4 -4 12 -6.5t13 -2.5h105q1 0 2 1l1 1v1.5v1.5l38 144h-104v0z" />
    <glyph glyph-name="uniE881" unicode="&#xe881;" 
d="M960 192h-566l-164 -205q-3 -4 -7.5 -6t-9.5 -2h-3t-4 1q-6 2 -10 7.5t-4 12.5v192h-128q-26 0 -45 19t-19 45v597q0 27 19 45.5t45 18.5h896q26 0 45 -18.5t19 -45.5v-597q0 -26 -19 -45t-45 -19v0zM981 853q0 9 -6 15.5t-15 6.5h-896q-9 0 -15 -6.5t-6 -15.5v-597
q0 -9 6 -15t15 -6h149q9 0 15.5 -6.5t6.5 -15.5v-152l132 166h1v0l2 2t2 1q0 1 1 1.5t2 0.5q1 1 2 1t1 1h3h2l0.5 0.5l0.5 0.5h576q9 0 15 6t6 15v597v0zM619 405q-27 0 -45.5 19t-18.5 45q0 27 18.5 45.5t45.5 18.5q5 0 10.5 -1t10.5 -3v167l-171 -57v-234v0v0
q0 -26 -18.5 -45t-45.5 -19q-26 0 -45 19t-19 45q0 27 19 45.5t45 18.5q6 0 11.5 -1t10.5 -3v189q0 7 4 12.5t10 7.5l214 72q4 1 9.5 0.5t9.5 -3.5t6.5 -8t2.5 -10v-249l-0.5 -0.5t-0.5 -1.5t0.5 -2t0.5 -3q0 -26 -19 -45t-45 -19v0zM427 405v0q0 9 -6.5 15.5t-15.5 6.5
q-8 0 -14.5 -6.5t-6.5 -15.5t6.5 -15t14.5 -6q9 0 15.5 6t6.5 15v0v0v0zM619 491q-9 0 -15.5 -6.5t-6.5 -15.5t6.5 -15t15.5 -6q8 0 14.5 6t6.5 15t-6.5 15.5t-14.5 6.5v0z" />
    <glyph glyph-name="uniE882" unicode="&#xe882;" 
d="M960 192h-566l-164 -205q-3 -4 -7.5 -6t-9.5 -2h-3t-4 1q-6 2 -10 7.5t-4 12.5v192h-128q-26 0 -45 19t-19 45v597q0 27 19 45.5t45 18.5h896q26 0 45 -18.5t19 -45.5v-597q0 -26 -19 -45t-45 -19v0zM981 853q0 9 -6 15.5t-15 6.5h-896q-9 0 -15 -6.5t-6 -15.5v-597
q0 -9 6 -15t15 -6h149q9 0 15.5 -6.5t6.5 -15.5v-152l132 166h1v0l2 2t2 1q0 1 1 1.5t2 0.5q1 1 1.5 1t1.5 1h3h2l0.5 0.5l0.5 0.5h576q9 0 15 6t6 15v597v0zM747 512q0 -9 -6.5 -15t-15.5 -6h-128q-6 0 -11 3t-8 8q-2 6 -1.5 12t3.5 11l103 136h-86q-8 0 -14.5 6.5
t-6.5 15.5t6.5 15t14.5 6h128q6 0 11.5 -3t7.5 -9q3 -5 2.5 -11t-4.5 -11l-102 -137h85q9 0 15.5 -6t6.5 -15v0zM512 405q0 -8 -6.5 -14.5t-14.5 -6.5h-171q-6 0 -11 3t-8 8q-2 5 -2 11t3 11l150 244h-132q-9 0 -15 6.5t-6 15.5t6 15t15 6h170q6 0 11 -3t7 -8q3 -5 3 -11
t-3 -10l-150 -245h133q9 0 15 -6.5t6 -15.5v0z" />
    <glyph glyph-name="uniE883" unicode="&#xe883;" 
d="M960 192h-566l-164 -205q-3 -4 -7.5 -6t-9.5 -2h-3t-4 1q-6 2 -10 7.5t-4 12.5v192h-128q-26 0 -45 19t-19 45v597q0 27 19 45.5t45 18.5h896q26 0 45 -18.5t19 -45.5v-597q0 -26 -19 -45t-45 -19v0zM981 853q0 9 -6 15.5t-15 6.5h-896q-9 0 -15 -6.5t-6 -15.5v-597
q0 -9 6 -15t15 -6h149q9 0 15.5 -6.5t6.5 -15.5v-152l132 166h1v0l2 2t2 1q0 1 1 1.5t2 0.5q1 1 2 1t2 1h2h2l0.5 0.5l0.5 0.5h576q9 0 15 6t6 15v597v0zM683 597h85v-85h-85v85v0zM469 597h86v-85h-86v85v0zM256 597h85v-85h-85v85v0z" />
    <glyph glyph-name="uniE884" unicode="&#xe884;" 
d="M960 192h-566l-164 -205q-3 -4 -7.5 -6t-9.5 -2h-3t-4 1q-6 2 -10 7.5t-4 12.5v192h-128q-26 0 -45 19t-19 45v597q0 27 19 45.5t45 18.5h896q26 0 45 -18.5t19 -45.5v-597q0 -26 -19 -45t-45 -19v0zM981 853q0 9 -6 15.5t-15 6.5h-896q-9 0 -15 -6.5t-6 -15.5v-597
q0 -9 6 -15t15 -6h149q9 0 15.5 -6.5t6.5 -15.5v-152l132 166h1v0l2 2t2 1q0 1 1 1.5t2 0.5q1 1 1.5 1t1.5 1h3h2l0.5 0.5l0.5 0.5h576q9 0 15 6t6 15v597v0z" />
    <glyph glyph-name="uniE885" unicode="&#xe885;" 
d="M896 192h-694l-164 -205q-3 -4 -7.5 -6t-9.5 -2h-3t-4 1q-6 2 -10 7.5t-4 12.5v790q0 52 37.5 89.5t90.5 37.5h768q53 0 90.5 -37.5t37.5 -89.5v-470q0 -53 -37.5 -90.5t-90.5 -37.5v0zM981 790q0 35 -25 60t-60 25h-768q-35 0 -60 -25t-25 -60v-729l132 166h1v0l2 2t2 1
q0 1 1 1.5t2 0.5q1 1 2 1t1 1h3h2l0.5 0.5l0.5 0.5h704q35 0 60 25t25 60v470v0zM512 363q-18 0 -30.5 12.5t-12.5 29.5q0 18 12.5 30.5t30.5 12.5t30.5 -12.5t12.5 -30.5q0 -17 -12.5 -29.5t-30.5 -12.5v0zM512 512q-9 0 -15 6.5t-6 14.5v192q0 9 6 15.5t15 6.5t15 -6.5
t6 -15.5v-192q0 -8 -6 -14.5t-15 -6.5v0z" />
    <glyph glyph-name="uniE886" unicode="&#xe886;" 
d="M896 192h-694l-164 -205q-3 -4 -7.5 -6t-9.5 -2h-3t-4 1q-6 2 -10 7.5t-4 12.5v790q0 52 37.5 89.5t90.5 37.5h768q53 0 90.5 -37.5t37.5 -89.5v-470q0 -53 -37.5 -90.5t-90.5 -37.5v0zM981 790q0 35 -25 60t-60 25h-768q-35 0 -60 -25t-25 -60v-729l132 166h1v0l2 2t2 1
q0 1 1 1.5t2 0.5q1 1 1.5 1t1.5 1h3h2l0.5 0.5l0.5 0.5h704q35 0 60 25t25 60v470v0zM533 514v-23v0v0q0 -2 -0.5 -4.5t-0.5 -3.5v0v0q-1 -1 -1 -1.5t-1 -1.5q0 -1 -1 -2l-2 -2t-2 -1.5t-2 -1.5v0v0q-2 -2 -5 -3t-6 -1v0v0v0v0q-2 0 -3.5 0.5t-3.5 1.5l-4 2t-4 3l-2 2t-2 3
v0.5t-1 0.5v0q0 2 -0.5 3.5t-0.5 2.5v1.5v1.5v42q0 9 6 15.5t15 6.5q35 0 60 25t25 60t-25 60t-60 25t-60 -25t-25 -60q0 -9 -6.5 -15t-15.5 -6q-8 0 -14.5 6t-6.5 15q0 53 37.5 90.5t90.5 37.5t90.5 -37.5t37.5 -90.5q0 -47 -30.5 -82.5t-76.5 -43.5v0zM512 427
q18 0 30.5 -12.5t12.5 -30.5t-12.5 -30.5t-30.5 -12.5t-30.5 12.5t-12.5 30.5t12.5 30.5t30.5 12.5v0z" />
    <glyph glyph-name="uniE887" unicode="&#xe887;" 
d="M896 192h-694l-164 -205q-3 -4 -7.5 -6t-9.5 -2h-3t-4 1q-6 2 -10 7.5t-4 12.5v790q0 52 37.5 89.5t90.5 37.5h768q53 0 90.5 -37.5t37.5 -89.5v-470q0 -53 -37.5 -90.5t-90.5 -37.5v0zM981 790q0 35 -25 60t-60 25h-768q-35 0 -60 -25t-25 -60v-729l132 166h1v0l2 2t2 1
q0 1 1 1.5t2 0.5q1 1 2 1t2 1h2h2l0.5 0.5l0.5 0.5h704q35 0 60 25t25 60v470v0zM704 619h-47l-32 -128h36q9 0 15.5 -6.5t6.5 -15.5q0 -8 -6.5 -14.5t-15.5 -6.5h-47l-17 -69q-2 -7 -8 -11.5t-13 -4.5h-2.5h-2.5q-9 2 -13.5 10t-2.5 16l15 59h-148l-17 -69q-2 -7 -8 -11.5
t-13 -4.5h-2.5h-2.5q-9 2 -13.5 10t-2.5 16l15 59h-37q-8 0 -14.5 6.5t-6.5 14.5q0 9 6.5 15.5t14.5 6.5h48l32 128h-37q-9 0 -15 6t-6 15t6 15t15 6h47l18 70q2 8 9.5 12.5t16.5 2.5q8 -2 12.5 -9.5t2.5 -16.5l-15 -59h148l18 70q2 8 9.5 12.5t16.5 2.5q8 -2 12.5 -9.5
t2.5 -16.5l-15 -59h37q9 0 15 -6t6 -15t-6 -15t-15 -6v0zM465 619l-32 -128h148l32 128h-148v0z" />
    <glyph glyph-name="uniE888" unicode="&#xe888;" 
d="M896 192h-694l-164 -205q-3 -4 -7.5 -6t-9.5 -2h-3t-4 1q-6 2 -10 7.5t-4 12.5v790q0 52 37.5 89.5t90.5 37.5h768q53 0 90.5 -37.5t37.5 -89.5v-470q0 -53 -37.5 -90.5t-90.5 -37.5v0zM981 790q0 35 -25 60t-60 25h-768q-35 0 -60 -25t-25 -60v-729l132 166h1v0l2 2t2 1
q0 1 1 1.5t2 0.5q1 1 1.5 1t1.5 1h3h2l0.5 0.5l0.5 0.5h704q35 0 60 25t25 60v470v0zM526 368q-1 -1 -2 -1.5t-2 -0.5q0 -1 -0.5 -1t-1.5 -1q-2 0 -4 -0.5t-4 -0.5v0v0v0v0q-2 0 -4 0.5t-4 0.5q-1 1 -1.5 1t-0.5 1q-1 0 -2 0.5t-2 1.5l-180 159q-19 19 -30 43.5t-11 49.5
q0 52 37.5 89.5t90.5 37.5q34 0 62 -16t45 -41q17 25 45 41t62 16q53 0 90.5 -37.5t37.5 -89.5q0 -25 -11 -49t-30 -43l-180 -160v0zM619 704q-36 0 -61 -24.5t-25 -59.5q0 -9 -6 -15t-15 -6t-15 6t-6 15q0 35 -25 59.5t-61 24.5q-35 0 -60 -24.5t-25 -59.5q0 -16 7.5 -32.5
t20.5 -29.5l164 -145l165 146q12 12 19.5 28.5t7.5 32.5q0 35 -25 59.5t-60 24.5v0z" />
    <glyph glyph-name="uniE889" unicode="&#xe889;" 
d="M896 192h-694l-164 -205q-3 -4 -7.5 -6t-9.5 -2h-3t-4 1q-6 2 -10 7.5t-4 12.5v790q0 52 37.5 89.5t90.5 37.5h768q53 0 90.5 -37.5t37.5 -89.5v-470q0 -53 -37.5 -90.5t-90.5 -37.5v0zM981 790q0 35 -25 60t-60 25h-768q-35 0 -60 -25t-25 -60v-729l132 166h1v0l2 2t2 1
q0 1 1 1.5t2 0.5q1 1 2 1t2 1h2h2l0.5 0.5l0.5 0.5h704q35 0 60 25t25 60v470v0zM703 570l-39 -147q-3 -17 -16 -28t-29 -11h-105q-12 0 -26.5 5t-24.5 12l-42 26h-16q0 -9 -6 -15.5t-15 -6.5t-15 6.5t-6 15.5v192q0 8 6 14.5t15 6.5t15 -6.5t6 -14.5h27l30 92q5 16 19.5 26
t31.5 10q21 0 42 -19t21 -45v-1v-1v-0.5v-0.5v-61h87q9 0 17 -3.5t14 -10.5q5 -6 8 -14.5t2 -16.5q0 -1 -0.5 -2t-0.5 -2v0zM556 576h-1v0v0v0q-9 0 -15.5 6.5t-6.5 14.5v83l0.5 0.5l0.5 0.5q0 1 -0.5 1t-0.5 1q0 7 -7.5 14t-12.5 7q-4 0 -7 -2t-3 -4l-35 -107
q-2 -7 -7.5 -11t-12.5 -4h-43v-107h22q3 0 5.5 -0.5t5.5 -2.5l48 -29q1 0 1.5 -0.5t1.5 -0.5q4 -4 12 -6.5t13 -2.5h105q1 0 2 1l1 1v1.5v1.5l38 144h-104v0z" />
    </font>
</defs>
</svg>
